<mxfile host="65bd71144e">
    <diagram id="C5RBs43oDa-KdzZeNtuy" name="Page-1">
        <mxGraphModel dx="737" dy="443" grid="1" gridSize="10" guides="1" tooltips="1" connect="1" arrows="1" fold="1" page="1" pageScale="1" pageWidth="2000" pageHeight="2000" math="0" shadow="0">
            <root>
                <mxCell id="WIyWlLk6GJQsqaUBKTNV-0"/>
                <mxCell id="WIyWlLk6GJQsqaUBKTNV-1" parent="WIyWlLk6GJQsqaUBKTNV-0"/>
                <mxCell id="WIyWlLk6GJQsqaUBKTNV-2" value="" style="rounded=0;html=1;jettySize=auto;orthogonalLoop=1;fontSize=11;endArrow=block;endFill=0;endSize=8;strokeWidth=1;shadow=0;labelBackgroundColor=none;edgeStyle=orthogonalEdgeStyle;" parent="WIyWlLk6GJQsqaUBKTNV-1" source="WIyWlLk6GJQsqaUBKTNV-3" edge="1">
                    <mxGeometry relative="1" as="geometry">
                        <mxPoint x="1013.5" y="100" as="targetPoint"/>
                    </mxGeometry>
                </mxCell>
                <mxCell id="WIyWlLk6GJQsqaUBKTNV-3" value="Start" style="rounded=1;whiteSpace=wrap;html=1;fontSize=12;glass=0;strokeWidth=1;shadow=0;" parent="WIyWlLk6GJQsqaUBKTNV-1" vertex="1">
                    <mxGeometry x="953.5" y="10" width="120" height="40" as="geometry"/>
                </mxCell>
                <mxCell id="j7jmiCkk_v82CKJUUQBR-0" value="&lt;h1 style=&quot;margin-top: 0px;&quot;&gt;Final Project&lt;br&gt;&lt;/h1&gt;&lt;div&gt;Agustin, Renren A.&lt;/div&gt;&lt;div&gt;Britos, Raniel T.&lt;/div&gt;&lt;div&gt;&lt;span style=&quot;background-color: initial;&quot;&gt;Cabrales, Nathan Josua C.&lt;/span&gt;&lt;br&gt;&lt;/div&gt;&lt;div&gt;&lt;span style=&quot;background-color: initial;&quot;&gt;Camama, Earl Justin&lt;/span&gt;&lt;/div&gt;" style="text;html=1;whiteSpace=wrap;overflow=hidden;rounded=0;" parent="WIyWlLk6GJQsqaUBKTNV-1" vertex="1">
                    <mxGeometry x="20" y="10" width="180" height="120" as="geometry"/>
                </mxCell>
                <mxCell id="j7jmiCkk_v82CKJUUQBR-6" value="User Picks from choices" style="strokeWidth=2;html=1;shape=mxgraph.flowchart.decision;whiteSpace=wrap;" parent="WIyWlLk6GJQsqaUBKTNV-1" vertex="1">
                    <mxGeometry x="953.5" y="240" width="120" height="120" as="geometry"/>
                </mxCell>
                <mxCell id="j7jmiCkk_v82CKJUUQBR-7" value="Student Management Menu" style="rounded=0;whiteSpace=wrap;html=1;" parent="WIyWlLk6GJQsqaUBKTNV-1" vertex="1">
                    <mxGeometry x="683.5" y="430" width="120" height="60" as="geometry"/>
                </mxCell>
                <mxCell id="12" style="edgeStyle=none;html=1;" edge="1" parent="WIyWlLk6GJQsqaUBKTNV-1" source="j7jmiCkk_v82CKJUUQBR-8">
                    <mxGeometry relative="1" as="geometry">
                        <mxPoint x="1284" y="510" as="targetPoint"/>
                    </mxGeometry>
                </mxCell>
                <mxCell id="j7jmiCkk_v82CKJUUQBR-8" value="Course Management Menu" style="rounded=0;whiteSpace=wrap;html=1;" parent="WIyWlLk6GJQsqaUBKTNV-1" vertex="1">
                    <mxGeometry x="1223.5" y="430" width="120" height="60" as="geometry"/>
                </mxCell>
                <mxCell id="j7jmiCkk_v82CKJUUQBR-9" value="Schedule Management Menu" style="rounded=0;whiteSpace=wrap;html=1;" parent="WIyWlLk6GJQsqaUBKTNV-1" vertex="1">
                    <mxGeometry x="953.5" y="430" width="120" height="60" as="geometry"/>
                </mxCell>
                <mxCell id="j7jmiCkk_v82CKJUUQBR-48" value="" style="edgeStyle=orthogonalEdgeStyle;rounded=0;orthogonalLoop=1;jettySize=auto;html=1;" parent="WIyWlLk6GJQsqaUBKTNV-1" source="j7jmiCkk_v82CKJUUQBR-10" target="j7jmiCkk_v82CKJUUQBR-47" edge="1">
                    <mxGeometry relative="1" as="geometry"/>
                </mxCell>
                <mxCell id="j7jmiCkk_v82CKJUUQBR-10" value="Enrollment Menu" style="rounded=0;whiteSpace=wrap;html=1;" parent="WIyWlLk6GJQsqaUBKTNV-1" vertex="1">
                    <mxGeometry x="413.5" y="430" width="120" height="60" as="geometry"/>
                </mxCell>
                <mxCell id="1" value="" style="edgeStyle=none;html=1;" parent="WIyWlLk6GJQsqaUBKTNV-1" source="j7jmiCkk_v82CKJUUQBR-11" target="0" edge="1">
                    <mxGeometry relative="1" as="geometry"/>
                </mxCell>
                <mxCell id="j7jmiCkk_v82CKJUUQBR-11" value="Exit Program" style="rounded=0;whiteSpace=wrap;html=1;" parent="WIyWlLk6GJQsqaUBKTNV-1" vertex="1">
                    <mxGeometry x="1493.5" y="430" width="120" height="60" as="geometry"/>
                </mxCell>
                <mxCell id="j7jmiCkk_v82CKJUUQBR-17" value="" style="endArrow=classic;html=1;rounded=0;exitX=0.5;exitY=1;exitDx=0;exitDy=0;exitPerimeter=0;entryX=0.5;entryY=0;entryDx=0;entryDy=0;" parent="WIyWlLk6GJQsqaUBKTNV-1" source="j7jmiCkk_v82CKJUUQBR-6" target="j7jmiCkk_v82CKJUUQBR-9" edge="1">
                    <mxGeometry width="50" height="50" relative="1" as="geometry">
                        <mxPoint x="1003.5" y="400" as="sourcePoint"/>
                        <mxPoint x="1053.5" y="350" as="targetPoint"/>
                    </mxGeometry>
                </mxCell>
                <mxCell id="j7jmiCkk_v82CKJUUQBR-18" value="" style="endArrow=none;html=1;rounded=0;" parent="WIyWlLk6GJQsqaUBKTNV-1" edge="1">
                    <mxGeometry width="50" height="50" relative="1" as="geometry">
                        <mxPoint x="470" y="370" as="sourcePoint"/>
                        <mxPoint x="1550" y="370" as="targetPoint"/>
                    </mxGeometry>
                </mxCell>
                <mxCell id="j7jmiCkk_v82CKJUUQBR-20" value="" style="endArrow=classic;html=1;rounded=0;entryX=0.5;entryY=0;entryDx=0;entryDy=0;" parent="WIyWlLk6GJQsqaUBKTNV-1" edge="1">
                    <mxGeometry width="50" height="50" relative="1" as="geometry">
                        <mxPoint x="470" y="370" as="sourcePoint"/>
                        <mxPoint x="470" y="430" as="targetPoint"/>
                    </mxGeometry>
                </mxCell>
                <mxCell id="j7jmiCkk_v82CKJUUQBR-21" value="" style="endArrow=classic;html=1;rounded=0;entryX=0.5;entryY=0;entryDx=0;entryDy=0;" parent="WIyWlLk6GJQsqaUBKTNV-1" edge="1">
                    <mxGeometry width="50" height="50" relative="1" as="geometry">
                        <mxPoint x="740" y="370" as="sourcePoint"/>
                        <mxPoint x="740" y="430" as="targetPoint"/>
                    </mxGeometry>
                </mxCell>
                <mxCell id="j7jmiCkk_v82CKJUUQBR-22" value="" style="endArrow=classic;html=1;rounded=0;entryX=0.5;entryY=0;entryDx=0;entryDy=0;" parent="WIyWlLk6GJQsqaUBKTNV-1" edge="1">
                    <mxGeometry width="50" height="50" relative="1" as="geometry">
                        <mxPoint x="1290" y="370" as="sourcePoint"/>
                        <mxPoint x="1290" y="430" as="targetPoint"/>
                    </mxGeometry>
                </mxCell>
                <mxCell id="j7jmiCkk_v82CKJUUQBR-23" value="" style="endArrow=classic;html=1;rounded=0;entryX=0.5;entryY=0;entryDx=0;entryDy=0;" parent="WIyWlLk6GJQsqaUBKTNV-1" edge="1">
                    <mxGeometry width="50" height="50" relative="1" as="geometry">
                        <mxPoint x="1550" y="370" as="sourcePoint"/>
                        <mxPoint x="1550" y="430" as="targetPoint"/>
                    </mxGeometry>
                </mxCell>
                <mxCell id="j7jmiCkk_v82CKJUUQBR-31" value="" style="edgeStyle=orthogonalEdgeStyle;rounded=0;orthogonalLoop=1;jettySize=auto;html=1;" parent="WIyWlLk6GJQsqaUBKTNV-1" source="j7jmiCkk_v82CKJUUQBR-29" target="j7jmiCkk_v82CKJUUQBR-6" edge="1">
                    <mxGeometry relative="1" as="geometry"/>
                </mxCell>
                <mxCell id="j7jmiCkk_v82CKJUUQBR-29" value="Display Main Menu&lt;div&gt;*Iglesia Ni Britos University&lt;/div&gt;&lt;div&gt;*1. Enrollment&lt;br&gt;*2. Student Management&lt;br&gt;*3. Schedule Management&lt;br&gt;*4. Course Management&lt;br&gt;*5. Exit Program&lt;/div&gt;" style="shape=parallelogram;perimeter=parallelogramPerimeter;whiteSpace=wrap;html=1;fixedSize=1;" parent="WIyWlLk6GJQsqaUBKTNV-1" vertex="1">
                    <mxGeometry x="918.5" y="100" width="190" height="120" as="geometry"/>
                </mxCell>
                <mxCell id="j7jmiCkk_v82CKJUUQBR-53" value="" style="edgeStyle=orthogonalEdgeStyle;rounded=0;orthogonalLoop=1;jettySize=auto;html=1;" parent="WIyWlLk6GJQsqaUBKTNV-1" source="j7jmiCkk_v82CKJUUQBR-47" target="j7jmiCkk_v82CKJUUQBR-49" edge="1">
                    <mxGeometry relative="1" as="geometry"/>
                </mxCell>
                <mxCell id="j7jmiCkk_v82CKJUUQBR-47" value="1.Enroll a Student&lt;div&gt;2. Display Enrolled Students&lt;/div&gt;" style="shape=parallelogram;perimeter=parallelogramPerimeter;whiteSpace=wrap;html=1;fixedSize=1;" parent="WIyWlLk6GJQsqaUBKTNV-1" vertex="1">
                    <mxGeometry x="401.75" y="520" width="143.5" height="71.75" as="geometry"/>
                </mxCell>
                <mxCell id="j7jmiCkk_v82CKJUUQBR-49" value="User picks" style="rhombus;whiteSpace=wrap;html=1;" parent="WIyWlLk6GJQsqaUBKTNV-1" vertex="1">
                    <mxGeometry x="433.5" y="610" width="80" height="80" as="geometry"/>
                </mxCell>
                <mxCell id="j7jmiCkk_v82CKJUUQBR-64" value="" style="edgeStyle=orthogonalEdgeStyle;rounded=0;orthogonalLoop=1;jettySize=auto;html=1;" parent="WIyWlLk6GJQsqaUBKTNV-1" source="j7jmiCkk_v82CKJUUQBR-50" target="j7jmiCkk_v82CKJUUQBR-63" edge="1">
                    <mxGeometry relative="1" as="geometry"/>
                </mxCell>
                <mxCell id="j7jmiCkk_v82CKJUUQBR-50" value="&lt;div style=&quot;&quot;&gt;&lt;span style=&quot;background-color: initial;&quot;&gt;Output: Enter Student ID&lt;/span&gt;&lt;/div&gt;&lt;div style=&quot;&quot;&gt;Input: ----&lt;/div&gt;" style="shape=parallelogram;perimeter=parallelogramPerimeter;whiteSpace=wrap;html=1;fixedSize=1;align=center;" parent="WIyWlLk6GJQsqaUBKTNV-1" vertex="1">
                    <mxGeometry x="283" y="740.88" width="169.5" height="84.75" as="geometry"/>
                </mxCell>
                <mxCell id="j7jmiCkk_v82CKJUUQBR-54" value="Display Enrolled Students" style="rounded=0;whiteSpace=wrap;html=1;" parent="WIyWlLk6GJQsqaUBKTNV-1" vertex="1">
                    <mxGeometry x="520.5" y="740.88" width="120" height="89.12" as="geometry"/>
                </mxCell>
                <mxCell id="j7jmiCkk_v82CKJUUQBR-55" value="" style="endArrow=none;html=1;rounded=0;" parent="WIyWlLk6GJQsqaUBKTNV-1" edge="1">
                    <mxGeometry width="50" height="50" relative="1" as="geometry">
                        <mxPoint x="367" y="710" as="sourcePoint"/>
                        <mxPoint x="581" y="710" as="targetPoint"/>
                    </mxGeometry>
                </mxCell>
                <mxCell id="j7jmiCkk_v82CKJUUQBR-57" value="" style="endArrow=classic;html=1;rounded=0;" parent="WIyWlLk6GJQsqaUBKTNV-1" edge="1">
                    <mxGeometry width="50" height="50" relative="1" as="geometry">
                        <mxPoint x="581.17" y="709.88" as="sourcePoint"/>
                        <mxPoint x="581.17" y="739.88" as="targetPoint"/>
                    </mxGeometry>
                </mxCell>
                <mxCell id="j7jmiCkk_v82CKJUUQBR-58" value="" style="endArrow=classic;html=1;rounded=0;" parent="WIyWlLk6GJQsqaUBKTNV-1" edge="1">
                    <mxGeometry width="50" height="50" relative="1" as="geometry">
                        <mxPoint x="367.16999999999996" y="709.88" as="sourcePoint"/>
                        <mxPoint x="367.16999999999996" y="739.88" as="targetPoint"/>
                    </mxGeometry>
                </mxCell>
                <mxCell id="j7jmiCkk_v82CKJUUQBR-59" value="" style="endArrow=none;html=1;rounded=0;entryX=0.5;entryY=1;entryDx=0;entryDy=0;" parent="WIyWlLk6GJQsqaUBKTNV-1" target="j7jmiCkk_v82CKJUUQBR-49" edge="1">
                    <mxGeometry width="50" height="50" relative="1" as="geometry">
                        <mxPoint x="474" y="710" as="sourcePoint"/>
                        <mxPoint x="630" y="740" as="targetPoint"/>
                    </mxGeometry>
                </mxCell>
                <mxCell id="j7jmiCkk_v82CKJUUQBR-66" value="" style="edgeStyle=orthogonalEdgeStyle;rounded=0;orthogonalLoop=1;jettySize=auto;html=1;" parent="WIyWlLk6GJQsqaUBKTNV-1" source="j7jmiCkk_v82CKJUUQBR-63" edge="1">
                    <mxGeometry relative="1" as="geometry">
                        <mxPoint x="367.7741935483871" y="920" as="targetPoint"/>
                    </mxGeometry>
                </mxCell>
                <mxCell id="j7jmiCkk_v82CKJUUQBR-63" value="Validate Input (Exists, Not Enrolled Yet)" style="rounded=0;whiteSpace=wrap;html=1;" parent="WIyWlLk6GJQsqaUBKTNV-1" vertex="1">
                    <mxGeometry x="303.88" y="850" width="127.75" height="50" as="geometry"/>
                </mxCell>
                <mxCell id="j7jmiCkk_v82CKJUUQBR-69" value="" style="edgeStyle=orthogonalEdgeStyle;rounded=0;orthogonalLoop=1;jettySize=auto;html=1;" parent="WIyWlLk6GJQsqaUBKTNV-1" source="j7jmiCkk_v82CKJUUQBR-67" target="j7jmiCkk_v82CKJUUQBR-68" edge="1">
                    <mxGeometry relative="1" as="geometry"/>
                </mxCell>
                <mxCell id="j7jmiCkk_v82CKJUUQBR-67" value="Output: Display Available Courses" style="shape=parallelogram;perimeter=parallelogramPerimeter;whiteSpace=wrap;html=1;fixedSize=1;" parent="WIyWlLk6GJQsqaUBKTNV-1" vertex="1">
                    <mxGeometry x="288" y="920" width="159.5" height="79.75" as="geometry"/>
                </mxCell>
                <mxCell id="j7jmiCkk_v82CKJUUQBR-72" value="" style="edgeStyle=orthogonalEdgeStyle;rounded=0;orthogonalLoop=1;jettySize=auto;html=1;" parent="WIyWlLk6GJQsqaUBKTNV-1" source="j7jmiCkk_v82CKJUUQBR-68" target="j7jmiCkk_v82CKJUUQBR-71" edge="1">
                    <mxGeometry relative="1" as="geometry"/>
                </mxCell>
                <mxCell id="j7jmiCkk_v82CKJUUQBR-68" value="Input: Select Courses&amp;nbsp;" style="shape=parallelogram;perimeter=parallelogramPerimeter;whiteSpace=wrap;html=1;fixedSize=1;" parent="WIyWlLk6GJQsqaUBKTNV-1" vertex="1">
                    <mxGeometry x="283.01" y="1020" width="169.5" height="84.75" as="geometry"/>
                </mxCell>
                <mxCell id="j7jmiCkk_v82CKJUUQBR-74" value="" style="edgeStyle=orthogonalEdgeStyle;rounded=0;orthogonalLoop=1;jettySize=auto;html=1;" parent="WIyWlLk6GJQsqaUBKTNV-1" source="j7jmiCkk_v82CKJUUQBR-71" target="j7jmiCkk_v82CKJUUQBR-73" edge="1">
                    <mxGeometry relative="1" as="geometry"/>
                </mxCell>
                <mxCell id="j7jmiCkk_v82CKJUUQBR-71" value="Validate Enrollment (Year Level, Duplicate)" style="rounded=0;whiteSpace=wrap;html=1;" parent="WIyWlLk6GJQsqaUBKTNV-1" vertex="1">
                    <mxGeometry x="303.88" y="1134" width="127.75" height="50" as="geometry"/>
                </mxCell>
                <mxCell id="j7jmiCkk_v82CKJUUQBR-76" value="" style="edgeStyle=orthogonalEdgeStyle;rounded=0;orthogonalLoop=1;jettySize=auto;html=1;" parent="WIyWlLk6GJQsqaUBKTNV-1" source="j7jmiCkk_v82CKJUUQBR-73" target="j7jmiCkk_v82CKJUUQBR-75" edge="1">
                    <mxGeometry relative="1" as="geometry"/>
                </mxCell>
                <mxCell id="j7jmiCkk_v82CKJUUQBR-73" value="Output: Confirm (Yes or No)" style="shape=parallelogram;perimeter=parallelogramPerimeter;whiteSpace=wrap;html=1;fixedSize=1;" parent="WIyWlLk6GJQsqaUBKTNV-1" vertex="1">
                    <mxGeometry x="276.5" y="1210" width="182.5" height="91.25" as="geometry"/>
                </mxCell>
                <mxCell id="j7jmiCkk_v82CKJUUQBR-81" value="" style="edgeStyle=orthogonalEdgeStyle;rounded=0;orthogonalLoop=1;jettySize=auto;html=1;" parent="WIyWlLk6GJQsqaUBKTNV-1" source="j7jmiCkk_v82CKJUUQBR-75" edge="1">
                    <mxGeometry relative="1" as="geometry">
                        <mxPoint x="368" y="1430" as="targetPoint"/>
                    </mxGeometry>
                </mxCell>
                <mxCell id="j7jmiCkk_v82CKJUUQBR-75" value="Choice" style="rhombus;whiteSpace=wrap;html=1;" parent="WIyWlLk6GJQsqaUBKTNV-1" vertex="1">
                    <mxGeometry x="327.75" y="1320" width="80" height="80" as="geometry"/>
                </mxCell>
                <mxCell id="j7jmiCkk_v82CKJUUQBR-77" value="" style="endArrow=none;html=1;rounded=0;entryX=0;entryY=0.5;entryDx=0;entryDy=0;" parent="WIyWlLk6GJQsqaUBKTNV-1" target="j7jmiCkk_v82CKJUUQBR-75" edge="1">
                    <mxGeometry width="50" height="50" relative="1" as="geometry">
                        <mxPoint x="230" y="1360" as="sourcePoint"/>
                        <mxPoint x="326.5" y="1360" as="targetPoint"/>
                    </mxGeometry>
                </mxCell>
                <mxCell id="j7jmiCkk_v82CKJUUQBR-78" value="" style="endArrow=none;html=1;rounded=0;" parent="WIyWlLk6GJQsqaUBKTNV-1" edge="1">
                    <mxGeometry width="50" height="50" relative="1" as="geometry">
                        <mxPoint x="230" y="1360" as="sourcePoint"/>
                        <mxPoint x="230" y="1060" as="targetPoint"/>
                    </mxGeometry>
                </mxCell>
                <mxCell id="j7jmiCkk_v82CKJUUQBR-79" value="" style="endArrow=classic;html=1;rounded=0;" parent="WIyWlLk6GJQsqaUBKTNV-1" target="j7jmiCkk_v82CKJUUQBR-68" edge="1">
                    <mxGeometry width="50" height="50" relative="1" as="geometry">
                        <mxPoint x="230" y="1060" as="sourcePoint"/>
                        <mxPoint x="460" y="1170" as="targetPoint"/>
                    </mxGeometry>
                </mxCell>
                <mxCell id="j7jmiCkk_v82CKJUUQBR-88" value="" style="edgeStyle=orthogonalEdgeStyle;rounded=0;orthogonalLoop=1;jettySize=auto;html=1;" parent="WIyWlLk6GJQsqaUBKTNV-1" source="j7jmiCkk_v82CKJUUQBR-82" target="j7jmiCkk_v82CKJUUQBR-87" edge="1">
                    <mxGeometry relative="1" as="geometry"/>
                </mxCell>
                <mxCell id="j7jmiCkk_v82CKJUUQBR-82" value="View Student's Schedule" style="rounded=0;whiteSpace=wrap;html=1;" parent="WIyWlLk6GJQsqaUBKTNV-1" vertex="1">
                    <mxGeometry x="303.88" y="1430" width="127.75" height="50" as="geometry"/>
                </mxCell>
                <mxCell id="2" value="" style="edgeStyle=none;html=1;" parent="WIyWlLk6GJQsqaUBKTNV-1" source="j7jmiCkk_v82CKJUUQBR-87" target="j7jmiCkk_v82CKJUUQBR-89" edge="1">
                    <mxGeometry relative="1" as="geometry"/>
                </mxCell>
                <mxCell id="j7jmiCkk_v82CKJUUQBR-87" value="Output: Return to main menu or enrollment menu?" style="shape=parallelogram;perimeter=parallelogramPerimeter;whiteSpace=wrap;html=1;fixedSize=1;" parent="WIyWlLk6GJQsqaUBKTNV-1" vertex="1">
                    <mxGeometry x="263.24" y="1510" width="209.01" height="50" as="geometry"/>
                </mxCell>
                <mxCell id="j7jmiCkk_v82CKJUUQBR-89" value="Choice" style="rhombus;whiteSpace=wrap;html=1;" parent="WIyWlLk6GJQsqaUBKTNV-1" vertex="1">
                    <mxGeometry x="327.76" y="1590" width="80" height="80" as="geometry"/>
                </mxCell>
                <mxCell id="j7jmiCkk_v82CKJUUQBR-90" value="" style="endArrow=none;html=1;rounded=0;entryX=0;entryY=0.5;entryDx=0;entryDy=0;" parent="WIyWlLk6GJQsqaUBKTNV-1" target="j7jmiCkk_v82CKJUUQBR-89" edge="1">
                    <mxGeometry width="50" height="50" relative="1" as="geometry">
                        <mxPoint x="178" y="1630" as="sourcePoint"/>
                        <mxPoint x="276.5" y="1599.68" as="targetPoint"/>
                    </mxGeometry>
                </mxCell>
                <mxCell id="j7jmiCkk_v82CKJUUQBR-91" value="" style="endArrow=none;html=1;rounded=0;" parent="WIyWlLk6GJQsqaUBKTNV-1" edge="1">
                    <mxGeometry width="50" height="50" relative="1" as="geometry">
                        <mxPoint x="180" y="1630" as="sourcePoint"/>
                        <mxPoint x="180" y="150" as="targetPoint"/>
                    </mxGeometry>
                </mxCell>
                <mxCell id="j7jmiCkk_v82CKJUUQBR-93" value="" style="endArrow=classic;html=1;rounded=0;entryX=0.059;entryY=0.43;entryDx=0;entryDy=0;entryPerimeter=0;" parent="WIyWlLk6GJQsqaUBKTNV-1" target="j7jmiCkk_v82CKJUUQBR-29" edge="1">
                    <mxGeometry width="50" height="50" relative="1" as="geometry">
                        <mxPoint x="180" y="150" as="sourcePoint"/>
                        <mxPoint x="480" y="150" as="targetPoint"/>
                    </mxGeometry>
                </mxCell>
                <mxCell id="j7jmiCkk_v82CKJUUQBR-94" value="" style="endArrow=classic;html=1;rounded=0;entryX=0;entryY=0.5;entryDx=0;entryDy=0;" parent="WIyWlLk6GJQsqaUBKTNV-1" target="j7jmiCkk_v82CKJUUQBR-10" edge="1">
                    <mxGeometry width="50" height="50" relative="1" as="geometry">
                        <mxPoint x="180" y="460" as="sourcePoint"/>
                        <mxPoint x="480" y="520" as="targetPoint"/>
                    </mxGeometry>
                </mxCell>
                <mxCell id="j7jmiCkk_v82CKJUUQBR-95" value="1.Add a Student&lt;div&gt;2. View Student Lists&lt;/div&gt;&lt;div&gt;3. Edit Student ID&lt;/div&gt;&lt;div&gt;4.Delete Student&lt;/div&gt;" style="shape=parallelogram;perimeter=parallelogramPerimeter;whiteSpace=wrap;html=1;fixedSize=1;" parent="WIyWlLk6GJQsqaUBKTNV-1" vertex="1">
                    <mxGeometry x="671.75" y="520" width="143.5" height="71.75" as="geometry"/>
                </mxCell>
                <mxCell id="j7jmiCkk_v82CKJUUQBR-96" value="User picks" style="rhombus;whiteSpace=wrap;html=1;" parent="WIyWlLk6GJQsqaUBKTNV-1" vertex="1">
                    <mxGeometry x="703.5" y="610" width="80" height="80" as="geometry"/>
                </mxCell>
                <mxCell id="0" value="End" style="html=1;dashed=0;whitespace=wrap;shape=mxgraph.dfd.start" parent="WIyWlLk6GJQsqaUBKTNV-1" vertex="1">
                    <mxGeometry x="1513.5" y="520" width="80" height="30" as="geometry"/>
                </mxCell>
                <mxCell id="3" value="" style="endArrow=none;startArrow=none;endFill=0;startFill=0;endSize=8;html=1;verticalAlign=bottom;labelBackgroundColor=none;strokeWidth=1;exitX=0.5;exitY=1;exitDx=0;exitDy=0;" parent="WIyWlLk6GJQsqaUBKTNV-1" source="j7jmiCkk_v82CKJUUQBR-54" edge="1">
                    <mxGeometry width="160" relative="1" as="geometry">
                        <mxPoint x="580.5" y="835" as="sourcePoint"/>
                        <mxPoint x="580" y="1535" as="targetPoint"/>
                    </mxGeometry>
                </mxCell>
                <mxCell id="4" value="" style="endArrow=open;startArrow=none;endFill=0;startFill=0;endSize=8;html=1;verticalAlign=bottom;labelBackgroundColor=none;strokeWidth=1;entryX=1;entryY=0.5;entryDx=0;entryDy=0;" parent="WIyWlLk6GJQsqaUBKTNV-1" target="j7jmiCkk_v82CKJUUQBR-87" edge="1">
                    <mxGeometry width="160" relative="1" as="geometry">
                        <mxPoint x="580" y="1535" as="sourcePoint"/>
                        <mxPoint x="750" y="1530" as="targetPoint"/>
                    </mxGeometry>
                </mxCell>
                <mxCell id="11" style="edgeStyle=none;html=1;entryX=0.5;entryY=0;entryDx=0;entryDy=0;" edge="1" parent="WIyWlLk6GJQsqaUBKTNV-1" source="5" target="6">
                    <mxGeometry relative="1" as="geometry"/>
                </mxCell>
                <mxCell id="5" value="1.Add Course&lt;div&gt;2. View Course&lt;/div&gt;&lt;div&gt;3. Edit Course&lt;/div&gt;&lt;div&gt;4.Delete Course&lt;/div&gt;&lt;div&gt;5. Exit&lt;/div&gt;" style="shape=parallelogram;perimeter=parallelogramPerimeter;whiteSpace=wrap;html=1;fixedSize=1;" vertex="1" parent="WIyWlLk6GJQsqaUBKTNV-1">
                    <mxGeometry x="1200" y="510" width="155.25" height="90" as="geometry"/>
                </mxCell>
                <mxCell id="10" style="edgeStyle=none;html=1;entryX=0.5;entryY=0;entryDx=0;entryDy=0;" edge="1" parent="WIyWlLk6GJQsqaUBKTNV-1" source="6" target="9">
                    <mxGeometry relative="1" as="geometry"/>
                </mxCell>
                <mxCell id="6" value="User picks" style="rhombus;whiteSpace=wrap;html=1;" vertex="1" parent="WIyWlLk6GJQsqaUBKTNV-1">
                    <mxGeometry x="1237.6200000000001" y="640" width="80" height="80" as="geometry"/>
                </mxCell>
                <mxCell id="7" value="" style="shape=image;verticalLabelPosition=bottom;labelBackgroundColor=default;verticalAlign=top;aspect=fixed;imageAspect=0;image=data:image/png,iVBORw0KGgoAAAANSUhEUgAAAdoAAAHgCAMAAAA121xWAAACx1BMVEX///8AAABAQEBQUFArKyvp6en4+Pi/v78tLS1FRUU0NDQpKSkkJCQREREKCgptbW0ICAjy8vLq6uqqqqqSkpIPDw/S0tLs7Ozj4+M+Pj7Ly8u9vb3o6OhwcHAcHBwVFRUCAgKlpaSAgIBHR0fv7+/n5+fJycmBgYF0dHQXFxdkZGSxsbGioqJZWVpKSkqUlJR6enqurq52dnampqaLi4tnZ2cyMjIZGRk8PDwTExP//wDDw8PBwcGWlpZdXV1JSUnb29tXV1caGhoEBATNzc20tLQ2NjYwMDDi4uLPz8+Ojo6IiIhVVVXx8fG2trZ4eHhTU1NMTEwBAQHFxcWQkJCJiYk5OTkMDAz19fVDQ0M3NzcmJib8/PzQ0NCsrKycnJxvb29hYWFbW1tBQUGFhYV8fHxqamo7Ozvh4eG3t7ebm5t/f3/V1dVUU1MhISH6+vr09PTm5ubZ2dmNjY339/fc3NzY2NjU1NRycnJSUlLOzs7Hx8e8vLy6urqwsLCYmJibZ1Gzs7NfX19OTk7u7u6oqKigoKBlZWUeHh7r6+uZmZn//+6Dg4OSxeh+fn5RUmi5ubmpqalmZmbX19hpaWnE7v+7u7ttUVHl5eXW1tZcXFwfHx//8sWampptbm7IyMienp7MmG1AQDDe3t5Ta52WyvFnksT62KheUlHxzp9RUVje+/7T9ftRUn5xbXX//viKv+Z4q9f//NL/8s5olsp4osj547pwiaxRWZHjvo+qimrDkWdRVFzy///t///l///8/v7P6PbA3vLy/+3//efX3Odhib9YgKfVtpfbsIBRXG18aV5rZFpnU1F4UVGq0/nq/+2+7e2k0d/t49uRvtvb1tPnz7HItLF3kaF0eo5Xaom+p4aGhn3PpXqGenC5hlunc1SRWFHj5/K7u8XPwLaGlraLoqyxi3pnenpebW2ZiV6RdFiRXlHOQYSYAAAkP0lEQVR42uzXyW7TUBiG4V/6JLbdFbasUaVwCVxQBJcQ1laUBVTZREiR3Nhx5nlo0jRpmqlJ2kJL54F5vAjOMaSpBO3aRd+zOTr+vXul42MhIiIiIiIi+n90Dx652geP23KzzMfnbaE7JWLDtfcOWbmZ8e/xmVMS8qhIGCOfz5d+HUDwtrQBrMjfoigKeZRK6zYzdNrMiQ1UWlb6KJk/T28bX9J78nbrydJhQo0Pt5zjjqi9s3TUkUH6cz30cIzQp6aQJ6m0pf3FxU037So0s2xj2wJyeZU9Ds3cCEBLJaw/q3618R1AdU3Ik1Rarbqj0qqkpeYAUIdzbgj0LKSSAVSTZ3B2AzATQ4SWazBbcbVGgcoHFbi3LuRNKm1oYeFlZUOl1cn0yVyMol8HzBP0uz8RFGP/hR5LIRxazgxOx3DTmk2RKGJCHjX/1s7TxuJo2P26M0a2MNXjp/f0WCIq7RAYnbtpi8K0nqbSBmdpLThBKU+QzU+BUg2qoA4tqvTuLO0lemK5aWO8IXtbZDJPa1wCr/xIJTMXwIrlh7mm4uGbDXNnlvYCo1P7Ku0qGhVeozyqcP3np/ADQKojUlPx8lPkRLp1AMfJqwO5HAa+TpD7nbbmR7UldBe8Wdxcv/2R8eD99d39Z0JERERERERERERERPSLXbv7aRoK4zj+e47GibRs0G0dJmTrhMmLOEIkjDjZmGRExKEww6uaDCXA0CFxgF5AghAh8Y7EGE3QP1V24QUsYM9hh47az+2e9Ln4Jk3XU4fjv7cfN+41DcSuKqm+ulCori+lXG3sbM1qNychB6MzhCt02TAuQqfKiB8LzkO2gNF6q5dOMzbz9vaihL6Eksty2bMw/w5ENEQZJFrZdNdSyV5N+xuvFl8vftdXCoUVPVBcj2verva5NjriqRlexaVoYEHaHg1itB5IM9gzQTQ2dGgM1uNUejw6UOrbqBUuQQPCxWM6ROgMsrhuEPm+dOzAhIPs0XDv1mzVNyBYQE2CX1KFJC05orsd12DaepOHYmvV3oBgBSUCXhEFkiTbKHYffBY6qe5mlTcgWCKdAZ/FNCQJ/KQN8MtSsFjdDQjWSBjgYdyCLJ10CBGj9LS6GxAskvPCPG8O0qjUABE6+aq7AcEq7jzMCrshD5EOETtE1d2AYAHOYO48JCL6DRGGPdMy4sI4brOit+4Wt8LIBKbkT6b1+cFvoc2WaYMNlVliJCr2wLUw3VGEKatf8yfSUu8L8Hp/neyYtna5UksyafzLdMZU2SmYxxaOpz2kUFMzuLzy0WcbpmUucCLxFxHKL5jRvgTzUoHjaZFJUbB7FWZ9uJMmjxf2SzuiVXJJUq3IK0kGDgwn0qJ5w0fUGD0w0/Vbk0r0zA/7pZ2PVnaJTjrvb+WW2lEiMPy3UP2DWiJK9W/Fz1gZWHxc4yHy9KwB9ksbzld8iZo894FAOgJAYPhYoU+vYyE6EmTbo9ld13oxsF9fKNTvB4p+1252dDvmoyN9/VozYMO00XkJS5TIOQ8E/NcB8A+XF2ruCF95R6d5ONQ/PD4LwI5ptREpS9IZnqfncm4vIDpcXujJuJbt/jE3NLMXnAiFJoJ7M0NT213RzUfXUGLPtK5GSUsSBsd/3nKeSfAMCxeyb9rlWmlLct5zHAgYOXANO2lPaghKXOLOix8IMBfXsJO2DJO6JOwWPRBIKnzDTtoyJHeJNyd2lovu51zDTtoLTwsjIfYFhqpzDTtpLz4tMmmR76ZefuQbdtJakBYRReBrx0SGa9hJa0laJFXub5QDKb5hG6cN0zHVlRZFKsp8qR3O2zntH/bu6KWpKI4D+Pd382ETQwPNbckqXWPqWDL3oLBmLmyWEU5NpNhEGxX4UFCBGQbuYYH4ovgQRU/9o3lkCnXv3c45t6N3t9/n0X0fzviy6+7uvb8TtE9tMaIU5mo75n/t0xm1MFfbMd+QP1WVwlxtx5zXDl4FVMJcbcf8GvUsC0A+zNU6Ix/+htxzH4JsmKt1i/ruyo/KBWQR5mpdo367Xrt5G7JEmKttEfXXXRZrfZAmwlxtq6iv7o3q74UsEeZqW0f9dEdj6DpkiTBX2ybqn/uQkw8hTYS52nZR3zw9oPCgjwhzte2jfnnmR/FBH65WIuqPJ/ViZcjbWOdqpaK+eL72WikCOd+Wt2vgat1ZpMsy81T8r7BFNk5/KtYnwdWapD/LwjuuVkbAJtDw3KhzQZsbxdPezgRu2hvPaGwK3oxGfByl1zxZFQGcrArc+U6U+aI4DznK85D9Pw/5bIr5mMIU8yJPMe+IKebCzvEA0VKoNx3jvQcCtfeA8G68uWNIPDw20X+Y/2MCzaHYMeQmnegb4R1DXF15Az3zV2CY2OenSG5uvXhywPv8dOA+P+cG85O57dloV098WkygmY73dFmb2ZUq787VybtzMcYYY4wxxhhjjDHGGGOMXQYLLJgIBBZEBHC3gUQAdxtIBHC3gUQAdxtIBHC3gUQAdxtIdPk3mzIjyA83EjMDyB83if8/hodxMQjQ6TaxaJE8KwZ376Ok5scKpCS/WsrrEe9LnbWYgCxra8vCRSBAp9vB1SRUdN+Dm8IKlOS78LiAtt7eLXX/VF6PeF86kquDkBOqAJUQzCNAq9ujfag53oCzuQyU7IwAyMyhteX6g1cV9fWI96Vn/whSCmmcSBdgGmm+Bguq1mfhqLwHJd0xAHtltFTfaOitxzJ82SyXwqlUDmaRh96VVZ/DQSQOJeNlCPEI3DWoobUe89tc7IbRFN6FSaT/OkFdow67Wj+UlB5B6K/BzfzLgv56LKPVDo3i3OgQzCEPCYKGCYc+pvJQ8XkGp/JTcLEQv6G6HvOfWnudomZjyEuGoGOxir8NJKBiIYtTiQE4m63prsd8teFd28HZCPKUImhZsh0945oby8bn4SQzqbse89WmcravVEaQtxxBy8SBx1OfvjUIbqc/0Tnd9ZivNl1wOBEygDwmCVo+9NkPsCqS3WjKLsCulNddj/lqKyHHny/+OfKaJeiwH5RSv9m796eYwjAO4N/nVbvtFpVuupMokkShSaEYoYhGJEoi18GEiDBJLo0xbmNcxvCnilmm7eyezvO0p07H8/mBmZpz9m2+ey7vvQ8cTf8C7auERdoDcXncj5Y4B8nRovUfZKYiykQVOO7fRkTVBGarbpSUx9Vo7S9QF1ocCTyUqGitVfXBQnA8fY6IwkHMcvSCrDwuRmv/WHWhxZEWs0e34qKl2dABa6tkQRjRHp4Wlse9aO1fhl1ocSTwUcKi7dqImXpHwNHdhYiRXkQrXSksj2vR2ldhXWhxpMUdY/MlFTO1fAZH7zAiPrcgysZ+aXncita+4cmFFkeCDCUo2lcNmOlkJjga8hCReRIzVU2Iy+NCtIzwZC2ObnZaUYLOY8QHG4/9XSS+5T4K+eOqTS5156o9Ji6PC9EyX5TqKn3xrM1NcelZe1VaHhei5VZvmjf54Q358VPMlPpB+Ib8IRXRSpOF5XEhWnajRMpZH9Rrh2owU3i9sF67PoxoP04Ly+NutARHyAetUZ25brVGbamQlceFaPmX49mUJd+G/DaEKMtqwXG/DhG1yzBb8yNReVyIVvAQ3dS81Ht+Zu9rdHQSHE8OI2LyKCySdgnK42a0dZWcPqil3V871oNo2engKNiOiPRsWOXX8svjQrSyCmvo0ZIeZZG/C9F27QTLyUzb4XLL+rnlkfxd+54MbO4t3X7y5YEXW2rbLEfaNTN5qMWRGD/ntsVHWh5YJqrs2zoG6njl4f9dl+8Pbq/vXz+SfCbz8sHghWUlp2tuYhpJorJ+FZboiMZYw8nT7oLjUDH+uJuG2Cpf5M2nPAR7b499q7uJKPeGWgfWAyS8wVpv4EtxHHJrABb1+8GxbxR/7K9HHJMNFZCXh2AnuzdUhRj6wweekPS1yPratfRmD6Reh9WR3ezRqpH/4npTmiUuj0kfRhwP6u1/ya3MyCpL7s/5MeDKG7yHWFK/MPtXI//aSG7Pz5WVx/7ChIW4CULe4uj+TL028PxcnmszY45hoAbA3n7YClaXpBfyy2P/OOUwi79OpvRpOj7By3ZiAPGcewSOm6EgrpzDXNqyB3Oe1tqUh/sSzLKx0QP7EUprN+PGkHPmMeL7aIjn2xCc6Hi+zNiUh1N1ZTOvIPLKIHHIK5tZ+sqqXkMCpncVZtEVaJSuG/V/0dXe/EvXaPQvXVnVv3Q9ZP/SVcz9S/ce8C/dMcS/dJ8f/9LduZRSSimllFJKKaWUUuq/tm+0hdhaRvdBedyTVhJpnYLytH2tK5qKEEEEh4qaVrQ+gPKyUWoC+NECTTQK5WUtVCSLtohaoLyMCLJoQToAw9s0Wt/SaH1Lo/Utjda3NFrf0mgX2K26kCHnTOmQRuuaekMCph4xhSsfgWNljRFHK4d4DM3NIMGuwx0mCyJZBjG0/+CfqN470TraFWtlKRLnwYkeEwoFmN8vR9+6oe8QIliUd/YSg+ksxzTjmRty6nU4cT0VCdHWv7fhwNZPwM96y8r1Is+fYoZTCVzKK697PVjWd+cBIK9Ea4JwJmgwX6eq0ntLBrblxVoVtXAQAtbNDwrCYLDd9vH9FJim3nso2vYsOJXVjvloLLuUMZE9EvcyKWmDgHWv+qaPEPjYhNnaeXfjdkwz3ol2qAbO1QxBaCR7IuPSNftdAi6+hsTri5hl4CfYfg5Yaj3hH2D5Eb4FkGeiLbsGjmtl4MvbNlDSm151aq73lj1pkEjbg9lSciHf4Uu+snFlnYeiZV+GQzXg+bT1QMPe/jbEQtaNu/i6umERyABTRgCJWMLcO9EKHp7tWawqDvWceIB4yPoOwmD3qtO4Eyw7G2FhwGY8E20wH3z5QVYVxw6JLzbr9Wbd4ICh+BCsCGzklWiFFdXU64wqDita7J0E1+RexFS9Bo6tqYa/ohU3L5WuZFRx7ND8djGw38EgbRgODafBZ9EaSBlGFccOMb417ObP8hw4lFPut2gJUsSo4tgh9q50nBrKWA8c6RmDRvsXMao4vPPcSwJP0j3EdfgoHDh6GBpt3COzjKWKI4wW2wu4ey/aGO3DnPpGodHGPbKsfZ7nkW+rmZ4NOy8vYw6XX0KjjXvk1DEkLtqOHHDkdMBOcinmUJqs0cY/8th4gqLl72Fduwz29m+Grc37odHGP9JAiiRpWb8H8v6MsmvQaF3Z54BY91jZ3XvzfttrWqN1KVrWm5Hwnas02eZJrNG6FS2/PmOtKcnfgV9e1mhdi5bVCiFt3+gbjVvr1WgXNtoTlXCm8gQgb286fBQarXvRMh+B1qeovJV4rAcarYvR8vrp5D2AOeXcfiF5tPnXghotiNe7Lu+3H07j9ubKow2WmUWfPeDZaGONiZnn0LY11cwxGPJovTAJ07vRvp9yNE5fPvrpUDE02kWJtqsbc+vuEo9ZbNwJl6Lt2aTR/kGMUeMR8vHoGQGbW7k02sy7P/atuom/6FOz8UK0BlLGhfNY53rYu/haPD8gJTcB0QavPQ2/zDh5Y/f2ltac3p33NxUBII8seGDaINNmXDiPdYaWvZI2/qwe3owgsok1n0zZWMHlU/ijfGRXX/OGlMq3Xol2fEI4M25i3IXzWOZV2isclMzFY83jM6G6XFjk1oWMKQvC6uz0bzwSLcaNIT5jxhnnMYzzWGZD2xDNsw4XsGbfvr2fsqG5tnG4HH+UDzfWTl+b998iiq5Aw2TInoGE4R647nnxzt6cjJJwuCRj+ola/Hwdomi0S1ygraCgLQALjVZptP85jda3NFrf0gXqfUu3lfAt3QzGv6Z0CyffEm68ptesUkoppZRSSimllFJKKaUWQiAA5RjJwYHysZr0zlB3d6gzvWasHFLPard0JjW0ErU2JHVuqX0GtbjRFmwNr6YZVoe3FoBv1eHfp4k+0eFVUHMgcunAzNupRJSRX38o60pX15WsQ/X5GUSUdDsTLIVrjxOtCFW8O5sXIArknX1XEVpBdHxtIdRiRNtRsZzoxsXGAGYINF68QbS8ogOOBbuJcl4EA9GfGQhuzCG6FIRa8Gi37aDj7V2Ioav9OO2YhDNFX4nS+u/E+sw7/WlEzclQCxrturVE1SOIY6SaaG0RHKhdTjs2nYn3mWc27aDlj6EWMNrCDZQUhI1gEm0oxFwC54iKO+w+s6OY6JzWhxYu2ier6fwp2DpVTaufwF5miFb0zfWZWSsolAn1i72z+2kajML4ecbWOWR1MBeRbTAZCkPQDUE+NRL8yFSiGYofTEWDwRFA4tAYNDMxEsVw4ccdl/iPGs0u2Bil79kKZZzfVQtperIfpevb9zzv3qhtR+oW7coM0E5GNFzEt+Tu50w2o7aBhL1Q2w49RybI6Vg3umYvYtZl5pyhSdTKdbsXai9Bv0qmuKrjE+2E5sGsZu6c2iw8cr+1Xm0wkjpLJsmlIkHagWl8c5k9Z6gZYSqDtrdnzrxto+qjompPx3CLTDOD2GkqSQJ60nyxSR05YrByLzxwNBYJLF6/vhiIxI4OhO+tkHV0OMDBcccWaqN4QQp0I0qlCHnxVKVYP7whUmNkJqrfmL42Mh9K03/SofmRa9M39OjMCFlCRyf9B6rpdZ09NlB7Ac5lUuChE6tUgg2E1YqdxmUqxlHTtUQlWeqqcQzEM0slf5eJDzjIChzEVEuO/Vc7HsMIKeFG/7jBT00Vmz+zm4pAYkP3XHJREa5LHn0jwY7c4wO2Wuy/2nZ0kyKjpZ6AJtGlWmwXZkt9MD/6Wp6Pvu895X5TX//Gfar3/ejzlr4fRCRqlQ6s96bekSLvUt56KiKIurRqsek6BEt/MB8uZDu6HVMPHkw5ujuyFz4QkahVPTCL26TMbWSpiCieqRc7hyhZEuLbCi6t1aPWiQlSZgJOKqQxFVhWL3Y5EGk0pVauWvUDm7BIDBbRRAXcwldOsZ24L2otUtuDl8TgJXqogFq4OcUGUStqLVJbi2FiMFyk5EtK1zjFanqkTdRaovZLxKcRA81XqCQBD69YDxKi1hK1H3GSWJzER9pCHO28YlsRF7WWqD2PPmLxC+dpC3fxk1fsKhZErSVqj+EmscjiWOEj1BNesUkcEbWWqL0LP7HwF15tgzjBK3YNg3uidnOHbdqsVrUeZIhFpnAcaQwar1gNvr1QiyFs387v2E5tiDi4gKIx/QliMYzJAkFloFmvFkNDQ9i+nd+xl1onpho5Zp1wHkK1m0P/2CzY3rpjK7VrN7D4imXWdRj/IR+kq5a+PEbzFZbZQ/k16gDda4nGB9A/zzF7OB9+Ds43ZCJaeoSWJwyzMmRh7+fafyyfg7dJ3awMNNpfLWk1CEyUZZba5PWALdXS61HoboZZC17qReSlXkXVUvozfD8Uzcqr+AOhltJ9GDurZlYm0BwMtURhjPmVzMq0t4OiluKIdKmYPRSTVatDLa0jNccxy59i/rtCU8xf1yHIEFQ8/7y65iEX0AucN2/W/o0hhpTuGqnSq5boONDLNUvj/XDbqJ2LjDDq9apOtTSXwjrLbL4J86F9mjCN+iwNOzSrpQmzmK4I4ibN2ql12mWH7mhD7nBbp5/HqUL4xxBmmOUFHoQqEXiw4kPOHpkGhvQwAw/iVDHOjqEvzTCbjynJkUlyqFxMyWFNIlEl48PnNMss0SeVcKHvFQkXmpRwIfO4dXS/VjDLiQRL7B4JFpJIsMozEUCNxjCbH/eYMRXkt05GNNSi2USQ34oE+SnS5MW5ZYbZfPxmt4n4ze8Sv7k/PGnBoyUFs1aE5oaBaePQ3GkgLPdZVeb7MTDOMZuPuh7dOep61GzUdc6LmFHUdUyirllcacbjtrxZZVaNA+p/kjlCl4G6udIB9XMSUM/mzyKaYzyzROPrOy8rsa6yrMQsEOgMFi8rEZRlJcqicQp5sxzqs04AvpO/sv7M8HDGn/1V1mIwravJNQ3Q1pKrrR4diERFbBmEnIZmOUs4XeX8id3fvoTTfVnCqTwaQsSgeOG1hejkZHShrIXX2hLxhSODPsA3eGQhnpAxw6pDlksUBEEQBEEQBEEQBEEQBEEQhL/s3etPUmEcB/CvpwvEJTWEgNJGOiFT3MALzcjLvJSY5KYpbt3Me1qhK3XWWqtla41VOqc5q61/tDe80B04nOd3zk+eNT6vxfN8/QrnPM95ALl4d5QyccrsHnT4GM1shdvalfa28FYmWgdjFEWBHI7nkvSOljcWB0VzLI0CXq36nMngYV9vGunevsNg0u0b/Au6MmCiAsWXO5d8duKgaZ6FpkCtY/0mjrNUPw9HDTQLXHSCHTWXbBSeR+4ONL1GLtvdbZfozQLeHnCj55JLGccj75xL3UE+vU9rPQaO1uUAO3oumXBU23zvG7Qs3Htn4GAeK9jRc0mEodrWWaiof4R+rPp+sKPnkof51c7FUVizz8ChLArY0XNJw/Rq3R3Qw+I0cKThTjCj5yr6JTxbte7b0KfrhoEDPdwAO3ouSZhc7VwH9LL4DBwnMAU2PLnolLJ8lBOstjUO/arKyc0Ciw2gOJve31yINkYXNvfTL6CBIRdRjRf5eGv4qlWvUIn48YXWLO0PmB5OdNt97fbJ2u5Md+2kvT1mb0ospKHCkYtuchP5bU6eULV37kHMKQ+5WWAsAv32g9ZYZzK6j6OWopFa38DXbagw5CIackGLa+hkqj33DWL6wvRmgWdXoU/lmN0+8yBfbzP20y0vocKQi6B6ENoGq0+i2t0URCkWerNAZAw61FWPj+5Dy9ro+fVKqDDkUiEUpy6fv9qBOxDltxm6DiivQkG/3IMorGW8GioMucS4hggv2QzVBpogbui7oXNFwyK0dbhHoc/g+CayGHKRbE4SLrQ4qq19DXFrYWOniqkAtGTmJqBX5WQQWQy5CLw1hOkRR7WvHKA4mDf2crLxEPmFZiAimUQWQy7O1aQy3mpX10Hxa9Rgrs5h5HOuEWL+dEKFnItxqUL9/Gat1ncTFJeewuCwfBbkdusTRD16AoAhF2mpgnBWZqn2oxM045VGR9Vfj1yCXyAuPg0w5KIsVRCupXmqjSZBE3EZHpTVw3COZMhFWKoQmAGzVZsJgiYTND4mRxdUuqOgaPwJjlyEogj/DDzVbh2C5l2rCUPq8apmHwOgOf2aIRdhqYLwEs5UbbgPNNdHzBiR8yIYnm0Gc9GXKogXXjzVtvWCxt9myoAqJnDMsgs034cYchGWKkjTJZZq29OgSbebs+U9FsJR9iXQrJ1myFWEXf+GqmUZz0EZ1TWG8Rj7PUR1btC46+R61u714ChlAjTKtlzP2mwuivnPoPg8L9u51oZjKi4SRyPbudYGCvobJKwe6a6QP+A4p5cyGNOmlTNBhlyiOmIQFeuQbl4bb1VNUruMN4t9O2gcKyy5uLfghPvkW42aUT/Q4THcLNAUAMWnW2DIJYC2AaApIOEacsgFFWu94Wbx9zkoam6DIRdBfIfwBniWauvcZt4h6bcYbRaYboa4qgTAkIsikYReyQTv/VoLKN6kkIsybLRZ4MkfiDrcAsCQiySZIPwTMFSrcbOCtCmx86HRZoFO0W4PR5DFkIvtc0biO+Ctln5uy20jQG1We7OTwFYqjlzEiyPtCy7mahHehjjPCPKZWjTaLBCcrIReH23TyOLLRZzSaE+T2KuNdkOU9qJRQ5XRZoHfzlXo0+L0I4svF3EhQntxg7Na+pqc9sdSlI8JN6u2fn4MhSUqQlBhyEVaPtRekuSolrCJT3C7YOSZ4WaBl6GKQQ+0PFitiExAhSEXddFf+0YCf7WoXYCY9yPQdjVixtAnVq2OZC9y8ycdA4NnocKVi36rTu2uGydUrUf4fahLKGCs3JyRr0y33T8XavTgqAeN66k5W6ILGoi5/rsPPBDc6tXwCAVVNZg18DNvW35aY1ccttTyzHLK5rgyZ73VsnsGGui5ZGBqtZhthn6jj6HD4pSp476w4t91RV27/pULKISeSwrmVgufxfSluMAGadh0xnPJweRq4eyCPktXoNPDzqI3K5ZLEmZXixsW6PHmCnQb9hW9Wf25pGnW/Grhq0JhoykIsPQXvVm9uWR5NWapFuU/UEjDYwiptxa9WX25JLmC4qoWX071Qcv7U48gyOMoerN6cskx62GsFp6w4kc+9b6RJQjr6il6s3pyyYRpd7zFNrSGXDzL/TdB4XUWvdmCueRSYDJO/5DJ7+GDX5dw3JvymhEXiC5WFL9ZzVyy2Ys105qNXUYB86NPxyOZd9f9aez5r8dnQuOpqtugm4hBiq9wyp1LQulZ0rdzlV+GDpWuYOtIW/tBmYar0Cs0sA05ZHMpPbYPrUFXJUpKSkpKSkpKSv61d28/TQRRHMd/p7ZbtrZrvUDRtoBFRQpqCwppVLxUJZVoAC0qFq33WEXUkHghalREfdNojJd4SfxHTYwPbmd3aKeruOv5vJMAXxra2ZkzjDHGGGOMsf+PpoF5zHw2M+rP5YnyOf9oJjsP5gmtI6EO+imfp586QiOtYG4X7xwnMvSu11MxDdBiU6+7dINovDMO5mbBCaLm50ENJlow3Ux0JQjmVomPROGzs7AwezZMNBQAc6VshAZ7S7BR6h2kyEMw99HKRMkjkDiSJCrz5yHXWamTcQaLWG2QzhuBXGZVG70oYFGF/RRaBeYiK9vIuI7FbQwThfh16yKaTgb5A4uXXU7+Q6RrWFK+72C1KtOL636hrVXZplWJNkpiSdGN/2D55K3S7nBUy5JRQEBoa1kWKBj0EHLHUlsHBq2/N9/gwNbUHBpBuFCBx+1458gJu0SEzgCmtpKywGqKJGAvdql9Ys3BA7dg7daBg8cn2y/FGkmLdAaellrhzAm7j5QETG2lZYEyDcFOqS/XH8BiAv2RvkbS4uIWeBlBgThxMEiDRyC0lZTFkW4Kwtq6tUXUZsR3v5Gfu38S3pW6BgVf1qPKBPUCQltJWaCXrsDSwgBqN7zQQFp8bb8Jj5oZduamtziFSxDaSsuiFKY4LASnUY/RYANpETBa4E09Y84ceO6ks4DQVloWqFAnRAvTqM/oQgNpAX8PPGlzEQKFaa6t482zENvKy2K2uaPViWs9hwuNpMXYcXjR5BzqF9iDKiP0HBDbyssCaSqiSmkt6udrKC3K/9IwH6fM5KEguBZVQhSEVVt5WcQphCp9RdXLbNTT4vgYPCd+AQoqaZjNjxsarNrKy0IzOjbAJJaDisg8THx1Lqf1+OE1aw5DgfDKypIOWLaVlgV0ysLkUj9U9F9q8MN6i+G1bT1JpbT3zsAsQ12waSstixRlYNIegIpEd4NpcbP9KzxlqBcK9rXAbJRew66trCye0TR+d2wCag5tUkhrNtkPL1G7Mnf5G5j5aQq2bSVlUaAm/C61BmoOdzWcFlsuwkMm5xy5WSRHMdi2bbEvi5eU+yO3MxNUZNLwjvBtKMi9hFmeNNi2jdqXhUbRP3KnOkFJ5QI8IxKDAuNkdaA87LREKfoBJpI/isFbUPN+vxNpEb8Br/ApfpUkrbC6GCV/QJ7W+QmtPija9U/Mb3RCTvFVKwkkrC5+kDy/1SgKftX+Eaed+V+bo5jk+axpXUr+NmpgHdRs4v+1VSaOOfIO2U9T9mVhaiv/8DP2GGqyy/gdMhz4VS5/I1myEMoKbSVLFl1FqLl4kT/Xmj1ZcGQ1KkNdkrKmtvKFxvvDUNM0xatRZne3O7KGnCVdUlZoK3k88Ok7VHy/wWvIVR6NOPLkZ77D0KzLim3lD/WKu6Fid5Gf/Ii7VRRU0pJH8UJZoa30UbxxE/VbeQL8vLbaiZWoX9An2UAjlBXaSjfQnE2jfk++8S4LwdMetb1Rkm1vQlmhrXTb2/ljqNfOId4bJTqcVNvRKNmsKpQV2so3q4b3oj63T4N3NIoO3FPdhyxuMRfLytvO2GwxD62r96EP70O2sueo4ukB8WCIUFbSVnYwpDR8HLU7PDzDpwcsfViueuZHPM4llJW0lR7n+rJiE2ozdzkJPvNj49w2xZN64iFMoaykrfwQ5tVD+lwtYfXJB+CTenZm9CAU+KyOTgtlJW1XUyQAe6/ORZ9W3rUEYC0x9eDzWPTcA/D5Wpnnzg08MJWVtr0fpYeQmu3pO9XUbjPwoLtJ7+vRAD4V/1eUaX/YVFbS9s7Sjyn5D2ZZOEbTifxCWcu24+ElHy70X0ygcczKATqUQA3uhJd+JBjPjarLqhC1FbCo+208yM91ePymd2lJorJ8aG6ZKMlDc93oYYS6ZaOuu3nUtWslhojCFesB9RUeUO9uwStEzem4BhMtztdKeMCvy2BSzwovNUB7WXiW0g2ijk4O636tRfEKpyJf4eQRG7KZ6aZclCiaa5rOZDeAeQxfl8gYY4wxxhhjjDHGGGOMMcYYY4wxxhhjjDHGGGOMMdaYHycqL/5uRrISAAAAAElFTkSuQmCC;" vertex="1" parent="WIyWlLk6GJQsqaUBKTNV-1">
                    <mxGeometry width="474" height="480" as="geometry"/>
                </mxCell>
                <mxCell id="8" value="" style="shape=image;verticalLabelPosition=bottom;labelBackgroundColor=default;verticalAlign=top;aspect=fixed;imageAspect=0;image=data:image/png,iVBORw0KGgoAAAANSUhEUgAAAdoAAAHgCAMAAAA121xWAAACx1BMVEX///8AAABAQEBQUFArKyvp6en4+Pi/v78tLS1FRUU0NDQpKSkkJCQREREKCgptbW0ICAjy8vLq6uqqqqqSkpIPDw/S0tLs7Ozj4+M+Pj7Ly8u9vb3o6OhwcHAcHBwVFRUCAgKlpaSAgIBHR0fv7+/n5+fJycmBgYF0dHQXFxdkZGSxsbGioqJZWVpKSkqUlJR6enqurq52dnampqaLi4tnZ2cyMjIZGRk8PDwTExP//wDDw8PBwcGWlpZdXV1JSUnb29tXV1caGhoEBATNzc20tLQ2NjYwMDDi4uLPz8+Ojo6IiIhVVVXx8fG2trZ4eHhTU1NMTEwBAQHFxcWQkJCJiYk5OTkMDAz19fVDQ0M3NzcmJib8/PzQ0NCsrKycnJxvb29hYWFbW1tBQUGFhYV8fHxqamo7Ozvh4eG3t7ebm5t/f3/V1dVUU1MhISH6+vr09PTm5ubZ2dmNjY339/fc3NzY2NjU1NRycnJSUlLOzs7Hx8e8vLy6urqwsLCYmJibZ1Gzs7NfX19OTk7u7u6oqKigoKBlZWUeHh7r6+uZmZn//+6Dg4OSxeh+fn5RUmi5ubmpqalmZmbX19hpaWnE7v+7u7ttUVHl5eXW1tZcXFwfHx//8sWampptbm7IyMienp7MmG1AQDDe3t5Ta52WyvFnksT62KheUlHxzp9RUVje+/7T9ftRUn5xbXX//viKv+Z4q9f//NL/8s5olsp4osj547pwiaxRWZHjvo+qimrDkWdRVFzy///t///l///8/v7P6PbA3vLy/+3//efX3Odhib9YgKfVtpfbsIBRXG18aV5rZFpnU1F4UVGq0/nq/+2+7e2k0d/t49uRvtvb1tPnz7HItLF3kaF0eo5Xaom+p4aGhn3PpXqGenC5hlunc1SRWFHj5/K7u8XPwLaGlraLoqyxi3pnenpebW2ZiV6RdFiRXlHOQYSYAAAkP0lEQVR42uzXyW7TUBiG4V/6JLbdFbasUaVwCVxQBJcQ1laUBVTZREiR3Nhx5nlo0jRpmqlJ2kJL54F5vAjOMaSpBO3aRd+zOTr+vXul42MhIiIiIiIi+n90Dx652geP23KzzMfnbaE7JWLDtfcOWbmZ8e/xmVMS8qhIGCOfz5d+HUDwtrQBrMjfoigKeZRK6zYzdNrMiQ1UWlb6KJk/T28bX9J78nbrydJhQo0Pt5zjjqi9s3TUkUH6cz30cIzQp6aQJ6m0pf3FxU037So0s2xj2wJyeZU9Ds3cCEBLJaw/q3618R1AdU3Ik1Rarbqj0qqkpeYAUIdzbgj0LKSSAVSTZ3B2AzATQ4SWazBbcbVGgcoHFbi3LuRNKm1oYeFlZUOl1cn0yVyMol8HzBP0uz8RFGP/hR5LIRxazgxOx3DTmk2RKGJCHjX/1s7TxuJo2P26M0a2MNXjp/f0WCIq7RAYnbtpi8K0nqbSBmdpLThBKU+QzU+BUg2qoA4tqvTuLO0lemK5aWO8IXtbZDJPa1wCr/xIJTMXwIrlh7mm4uGbDXNnlvYCo1P7Ku0qGhVeozyqcP3np/ADQKojUlPx8lPkRLp1AMfJqwO5HAa+TpD7nbbmR7UldBe8Wdxcv/2R8eD99d39Z0JERERERERERERERPSLXbv7aRoK4zj+e47GibRs0G0dJmTrhMmLOEIkjDjZmGRExKEww6uaDCXA0CFxgF5AghAh8Y7EGE3QP1V24QUsYM9hh47az+2e9Ln4Jk3XU4fjv7cfN+41DcSuKqm+ulCori+lXG3sbM1qNychB6MzhCt02TAuQqfKiB8LzkO2gNF6q5dOMzbz9vaihL6Eksty2bMw/w5ENEQZJFrZdNdSyV5N+xuvFl8vftdXCoUVPVBcj2verva5NjriqRlexaVoYEHaHg1itB5IM9gzQTQ2dGgM1uNUejw6UOrbqBUuQQPCxWM6ROgMsrhuEPm+dOzAhIPs0XDv1mzVNyBYQE2CX1KFJC05orsd12DaepOHYmvV3oBgBSUCXhEFkiTbKHYffBY6qe5mlTcgWCKdAZ/FNCQJ/KQN8MtSsFjdDQjWSBjgYdyCLJ10CBGj9LS6GxAskvPCPG8O0qjUABE6+aq7AcEq7jzMCrshD5EOETtE1d2AYAHOYO48JCL6DRGGPdMy4sI4brOit+4Wt8LIBKbkT6b1+cFvoc2WaYMNlVliJCr2wLUw3VGEKatf8yfSUu8L8Hp/neyYtna5UksyafzLdMZU2SmYxxaOpz2kUFMzuLzy0WcbpmUucCLxFxHKL5jRvgTzUoHjaZFJUbB7FWZ9uJMmjxf2SzuiVXJJUq3IK0kGDgwn0qJ5w0fUGD0w0/Vbk0r0zA/7pZ2PVnaJTjrvb+WW2lEiMPy3UP2DWiJK9W/Fz1gZWHxc4yHy9KwB9ksbzld8iZo894FAOgJAYPhYoU+vYyE6EmTbo9ld13oxsF9fKNTvB4p+1252dDvmoyN9/VozYMO00XkJS5TIOQ8E/NcB8A+XF2ruCF95R6d5ONQ/PD4LwI5ptREpS9IZnqfncm4vIDpcXujJuJbt/jE3NLMXnAiFJoJ7M0NT213RzUfXUGLPtK5GSUsSBsd/3nKeSfAMCxeyb9rlWmlLct5zHAgYOXANO2lPaghKXOLOix8IMBfXsJO2DJO6JOwWPRBIKnzDTtoyJHeJNyd2lovu51zDTtoLTwsjIfYFhqpzDTtpLz4tMmmR76ZefuQbdtJakBYRReBrx0SGa9hJa0laJFXub5QDKb5hG6cN0zHVlRZFKsp8qR3O2zntH/bu6KWpKI4D+Pd382ETQwPNbckqXWPqWDL3oLBmLmyWEU5NpNhEGxX4UFCBGQbuYYH4ovgQRU/9o3lkCnXv3c45t6N3t9/n0X0fzviy6+7uvb8TtE9tMaIU5mo75n/t0xm1MFfbMd+QP1WVwlxtx5zXDl4FVMJcbcf8GvUsC0A+zNU6Ix/+htxzH4JsmKt1i/ruyo/KBWQR5mpdo367Xrt5G7JEmKttEfXXXRZrfZAmwlxtq6iv7o3q74UsEeZqW0f9dEdj6DpkiTBX2ybqn/uQkw8hTYS52nZR3zw9oPCgjwhzte2jfnnmR/FBH65WIuqPJ/ViZcjbWOdqpaK+eL72WikCOd+Wt2vgat1ZpMsy81T8r7BFNk5/KtYnwdWapD/LwjuuVkbAJtDw3KhzQZsbxdPezgRu2hvPaGwK3oxGfByl1zxZFQGcrArc+U6U+aI4DznK85D9Pw/5bIr5mMIU8yJPMe+IKebCzvEA0VKoNx3jvQcCtfeA8G68uWNIPDw20X+Y/2MCzaHYMeQmnegb4R1DXF15Az3zV2CY2OenSG5uvXhywPv8dOA+P+cG85O57dloV098WkygmY73dFmb2ZUq787VybtzMcYYY4wxxhhjjDHGGGOMXQYLLJgIBBZEBHC3gUQAdxtIBHC3gUQAdxtIBHC3gUQAdxtIdPk3mzIjyA83EjMDyB83if8/hodxMQjQ6TaxaJE8KwZ376Ok5scKpCS/WsrrEe9LnbWYgCxra8vCRSBAp9vB1SRUdN+Dm8IKlOS78LiAtt7eLXX/VF6PeF86kquDkBOqAJUQzCNAq9ujfag53oCzuQyU7IwAyMyhteX6g1cV9fWI96Vn/whSCmmcSBdgGmm+Bguq1mfhqLwHJd0xAHtltFTfaOitxzJ82SyXwqlUDmaRh96VVZ/DQSQOJeNlCPEI3DWoobUe89tc7IbRFN6FSaT/OkFdow67Wj+UlB5B6K/BzfzLgv56LKPVDo3i3OgQzCEPCYKGCYc+pvJQ8XkGp/JTcLEQv6G6HvOfWnudomZjyEuGoGOxir8NJKBiIYtTiQE4m63prsd8teFd28HZCPKUImhZsh0945oby8bn4SQzqbse89WmcravVEaQtxxBy8SBx1OfvjUIbqc/0Tnd9ZivNl1wOBEygDwmCVo+9NkPsCqS3WjKLsCulNddj/lqKyHHny/+OfKaJeiwH5RSv9m796eYwjAO4N/nVbvtFpVuupMokkShSaEYoYhGJEoi18GEiDBJLo0xbmNcxvCnilmm7eyezvO0p07H8/mBmZpz9m2+ey7vvQ8cTf8C7auERdoDcXncj5Y4B8nRovUfZKYiykQVOO7fRkTVBGarbpSUx9Vo7S9QF1ocCTyUqGitVfXBQnA8fY6IwkHMcvSCrDwuRmv/WHWhxZEWs0e34qKl2dABa6tkQRjRHp4Wlse9aO1fhl1ocSTwUcKi7dqImXpHwNHdhYiRXkQrXSksj2vR2ldhXWhxpMUdY/MlFTO1fAZH7zAiPrcgysZ+aXncita+4cmFFkeCDCUo2lcNmOlkJjga8hCReRIzVU2Iy+NCtIzwZC2ObnZaUYLOY8QHG4/9XSS+5T4K+eOqTS5156o9Ji6PC9EyX5TqKn3xrM1NcelZe1VaHhei5VZvmjf54Q358VPMlPpB+Ib8IRXRSpOF5XEhWnajRMpZH9Rrh2owU3i9sF67PoxoP04Ly+NutARHyAetUZ25brVGbamQlceFaPmX49mUJd+G/DaEKMtqwXG/DhG1yzBb8yNReVyIVvAQ3dS81Ht+Zu9rdHQSHE8OI2LyKCySdgnK42a0dZWcPqil3V871oNo2engKNiOiPRsWOXX8svjQrSyCmvo0ZIeZZG/C9F27QTLyUzb4XLL+rnlkfxd+54MbO4t3X7y5YEXW2rbLEfaNTN5qMWRGD/ntsVHWh5YJqrs2zoG6njl4f9dl+8Pbq/vXz+SfCbz8sHghWUlp2tuYhpJorJ+FZboiMZYw8nT7oLjUDH+uJuG2Cpf5M2nPAR7b499q7uJKPeGWgfWAyS8wVpv4EtxHHJrABb1+8GxbxR/7K9HHJMNFZCXh2AnuzdUhRj6wweekPS1yPratfRmD6Reh9WR3ezRqpH/4npTmiUuj0kfRhwP6u1/ya3MyCpL7s/5MeDKG7yHWFK/MPtXI//aSG7Pz5WVx/7ChIW4CULe4uj+TL028PxcnmszY45hoAbA3n7YClaXpBfyy2P/OOUwi79OpvRpOj7By3ZiAPGcewSOm6EgrpzDXNqyB3Oe1tqUh/sSzLKx0QP7EUprN+PGkHPmMeL7aIjn2xCc6Hi+zNiUh1N1ZTOvIPLKIHHIK5tZ+sqqXkMCpncVZtEVaJSuG/V/0dXe/EvXaPQvXVnVv3Q9ZP/SVcz9S/ce8C/dMcS/dJ8f/9LduZRSSimllFJKKaWUUuq/tm+0hdhaRvdBedyTVhJpnYLytH2tK5qKEEEEh4qaVrQ+gPKyUWoC+NECTTQK5WUtVCSLtohaoLyMCLJoQToAw9s0Wt/SaH1Lo/Utjda3NFrf0mgX2K26kCHnTOmQRuuaekMCph4xhSsfgWNljRFHK4d4DM3NIMGuwx0mCyJZBjG0/+CfqN470TraFWtlKRLnwYkeEwoFmN8vR9+6oe8QIliUd/YSg+ksxzTjmRty6nU4cT0VCdHWv7fhwNZPwM96y8r1Is+fYoZTCVzKK697PVjWd+cBIK9Ea4JwJmgwX6eq0ntLBrblxVoVtXAQAtbNDwrCYLDd9vH9FJim3nso2vYsOJXVjvloLLuUMZE9EvcyKWmDgHWv+qaPEPjYhNnaeXfjdkwz3ol2qAbO1QxBaCR7IuPSNftdAi6+hsTri5hl4CfYfg5Yaj3hH2D5Eb4FkGeiLbsGjmtl4MvbNlDSm151aq73lj1pkEjbg9lSciHf4Uu+snFlnYeiZV+GQzXg+bT1QMPe/jbEQtaNu/i6umERyABTRgCJWMLcO9EKHp7tWawqDvWceIB4yPoOwmD3qtO4Eyw7G2FhwGY8E20wH3z5QVYVxw6JLzbr9Wbd4ICh+BCsCGzklWiFFdXU64wqDita7J0E1+RexFS9Bo6tqYa/ohU3L5WuZFRx7ND8djGw38EgbRgODafBZ9EaSBlGFccOMb417ObP8hw4lFPut2gJUsSo4tgh9q50nBrKWA8c6RmDRvsXMao4vPPcSwJP0j3EdfgoHDh6GBpt3COzjKWKI4wW2wu4ey/aGO3DnPpGodHGPbKsfZ7nkW+rmZ4NOy8vYw6XX0KjjXvk1DEkLtqOHHDkdMBOcinmUJqs0cY/8th4gqLl72Fduwz29m+Grc37odHGP9JAiiRpWb8H8v6MsmvQaF3Z54BY91jZ3XvzfttrWqN1KVrWm5Hwnas02eZJrNG6FS2/PmOtKcnfgV9e1mhdi5bVCiFt3+gbjVvr1WgXNtoTlXCm8gQgb286fBQarXvRMh+B1qeovJV4rAcarYvR8vrp5D2AOeXcfiF5tPnXghotiNe7Lu+3H07j9ubKow2WmUWfPeDZaGONiZnn0LY11cwxGPJovTAJ07vRvp9yNE5fPvrpUDE02kWJtqsbc+vuEo9ZbNwJl6Lt2aTR/kGMUeMR8vHoGQGbW7k02sy7P/atuom/6FOz8UK0BlLGhfNY53rYu/haPD8gJTcB0QavPQ2/zDh5Y/f2ltac3p33NxUBII8seGDaINNmXDiPdYaWvZI2/qwe3owgsok1n0zZWMHlU/ijfGRXX/OGlMq3Xol2fEI4M25i3IXzWOZV2isclMzFY83jM6G6XFjk1oWMKQvC6uz0bzwSLcaNIT5jxhnnMYzzWGZD2xDNsw4XsGbfvr2fsqG5tnG4HH+UDzfWTl+b998iiq5Aw2TInoGE4R647nnxzt6cjJJwuCRj+ola/Hwdomi0S1ygraCgLQALjVZptP85jda3NFrf0gXqfUu3lfAt3QzGv6Z0CyffEm68ptesUkoppZRSSimllFJKKaUWQiAA5RjJwYHysZr0zlB3d6gzvWasHFLPard0JjW0ErU2JHVuqX0GtbjRFmwNr6YZVoe3FoBv1eHfp4k+0eFVUHMgcunAzNupRJSRX38o60pX15WsQ/X5GUSUdDsTLIVrjxOtCFW8O5sXIArknX1XEVpBdHxtIdRiRNtRsZzoxsXGAGYINF68QbS8ogOOBbuJcl4EA9GfGQhuzCG6FIRa8Gi37aDj7V2Ioav9OO2YhDNFX4nS+u/E+sw7/WlEzclQCxrturVE1SOIY6SaaG0RHKhdTjs2nYn3mWc27aDlj6EWMNrCDZQUhI1gEm0oxFwC54iKO+w+s6OY6JzWhxYu2ier6fwp2DpVTaufwF5miFb0zfWZWSsolAn1i72z+2kajML4ecbWOWR1MBeRbTAZCkPQDUE+NRL8yFSiGYofTEWDwRFA4tAYNDMxEsVw4ccdl/iPGs0u2Bil79kKZZzfVQtperIfpevb9zzv3qhtR+oW7coM0E5GNFzEt+Tu50w2o7aBhL1Q2w49RybI6Vg3umYvYtZl5pyhSdTKdbsXai9Bv0qmuKrjE+2E5sGsZu6c2iw8cr+1Xm0wkjpLJsmlIkHagWl8c5k9Z6gZYSqDtrdnzrxto+qjompPx3CLTDOD2GkqSQJ60nyxSR05YrByLzxwNBYJLF6/vhiIxI4OhO+tkHV0OMDBcccWaqN4QQp0I0qlCHnxVKVYP7whUmNkJqrfmL42Mh9K03/SofmRa9M39OjMCFlCRyf9B6rpdZ09NlB7Ac5lUuChE6tUgg2E1YqdxmUqxlHTtUQlWeqqcQzEM0slf5eJDzjIChzEVEuO/Vc7HsMIKeFG/7jBT00Vmz+zm4pAYkP3XHJREa5LHn0jwY7c4wO2Wuy/2nZ0kyKjpZ6AJtGlWmwXZkt9MD/6Wp6Pvu895X5TX//Gfar3/ejzlr4fRCRqlQ6s96bekSLvUt56KiKIurRqsek6BEt/MB8uZDu6HVMPHkw5ujuyFz4QkahVPTCL26TMbWSpiCieqRc7hyhZEuLbCi6t1aPWiQlSZgJOKqQxFVhWL3Y5EGk0pVauWvUDm7BIDBbRRAXcwldOsZ24L2otUtuDl8TgJXqogFq4OcUGUStqLVJbi2FiMFyk5EtK1zjFanqkTdRaovZLxKcRA81XqCQBD69YDxKi1hK1H3GSWJzER9pCHO28YlsRF7WWqD2PPmLxC+dpC3fxk1fsKhZErSVqj+EmscjiWOEj1BNesUkcEbWWqL0LP7HwF15tgzjBK3YNg3uidnOHbdqsVrUeZIhFpnAcaQwar1gNvr1QiyFs387v2E5tiDi4gKIx/QliMYzJAkFloFmvFkNDQ9i+nd+xl1onpho5Zp1wHkK1m0P/2CzY3rpjK7VrN7D4imXWdRj/IR+kq5a+PEbzFZbZQ/k16gDda4nGB9A/zzF7OB9+Ds43ZCJaeoSWJwyzMmRh7+fafyyfg7dJ3awMNNpfLWk1CEyUZZba5PWALdXS61HoboZZC17qReSlXkXVUvozfD8Uzcqr+AOhltJ9GDurZlYm0BwMtURhjPmVzMq0t4OiluKIdKmYPRSTVatDLa0jNccxy59i/rtCU8xf1yHIEFQ8/7y65iEX0AucN2/W/o0hhpTuGqnSq5boONDLNUvj/XDbqJ2LjDDq9apOtTSXwjrLbL4J86F9mjCN+iwNOzSrpQmzmK4I4ibN2ql12mWH7mhD7nBbp5/HqUL4xxBmmOUFHoQqEXiw4kPOHpkGhvQwAw/iVDHOjqEvzTCbjynJkUlyqFxMyWFNIlEl48PnNMss0SeVcKHvFQkXmpRwIfO4dXS/VjDLiQRL7B4JFpJIsMozEUCNxjCbH/eYMRXkt05GNNSi2USQ34oE+SnS5MW5ZYbZfPxmt4n4ze8Sv7k/PGnBoyUFs1aE5oaBaePQ3GkgLPdZVeb7MTDOMZuPuh7dOep61GzUdc6LmFHUdUyirllcacbjtrxZZVaNA+p/kjlCl4G6udIB9XMSUM/mzyKaYzyzROPrOy8rsa6yrMQsEOgMFi8rEZRlJcqicQp5sxzqs04AvpO/sv7M8HDGn/1V1mIwravJNQ3Q1pKrrR4diERFbBmEnIZmOUs4XeX8id3fvoTTfVnCqTwaQsSgeOG1hejkZHShrIXX2hLxhSODPsA3eGQhnpAxw6pDlksUBEEQBEEQBEEQBEEQBEEQhL/s3etPUmEcB/CvpwvEJTWEgNJGOiFT3MALzcjLvJSY5KYpbt3Me1qhK3XWWqtla41VOqc5q61/tDe80B04nOd3zk+eNT6vxfN8/QrnPM95ALl4d5QyccrsHnT4GM1shdvalfa28FYmWgdjFEWBHI7nkvSOljcWB0VzLI0CXq36nMngYV9vGunevsNg0u0b/Au6MmCiAsWXO5d8duKgaZ6FpkCtY/0mjrNUPw9HDTQLXHSCHTWXbBSeR+4ONL1GLtvdbZfozQLeHnCj55JLGccj75xL3UE+vU9rPQaO1uUAO3oumXBU23zvG7Qs3Htn4GAeK9jRc0mEodrWWaiof4R+rPp+sKPnkof51c7FUVizz8ChLArY0XNJw/Rq3R3Qw+I0cKThTjCj5yr6JTxbte7b0KfrhoEDPdwAO3ouSZhc7VwH9LL4DBwnMAU2PLnolLJ8lBOstjUO/arKyc0Ciw2gOJve31yINkYXNvfTL6CBIRdRjRf5eGv4qlWvUIn48YXWLO0PmB5OdNt97fbJ2u5Md+2kvT1mb0ospKHCkYtuchP5bU6eULV37kHMKQ+5WWAsAv32g9ZYZzK6j6OWopFa38DXbagw5CIackGLa+hkqj33DWL6wvRmgWdXoU/lmN0+8yBfbzP20y0vocKQi6B6ENoGq0+i2t0URCkWerNAZAw61FWPj+5Dy9ro+fVKqDDkUiEUpy6fv9qBOxDltxm6DiivQkG/3IMorGW8GioMucS4hggv2QzVBpogbui7oXNFwyK0dbhHoc/g+CayGHKRbE4SLrQ4qq19DXFrYWOniqkAtGTmJqBX5WQQWQy5CLw1hOkRR7WvHKA4mDf2crLxEPmFZiAimUQWQy7O1aQy3mpX10Hxa9Rgrs5h5HOuEWL+dEKFnItxqUL9/Gat1ncTFJeewuCwfBbkdusTRD16AoAhF2mpgnBWZqn2oxM045VGR9Vfj1yCXyAuPg0w5KIsVRCupXmqjSZBE3EZHpTVw3COZMhFWKoQmAGzVZsJgiYTND4mRxdUuqOgaPwJjlyEogj/DDzVbh2C5l2rCUPq8apmHwOgOf2aIRdhqYLwEs5UbbgPNNdHzBiR8yIYnm0Gc9GXKogXXjzVtvWCxt9myoAqJnDMsgs034cYchGWKkjTJZZq29OgSbebs+U9FsJR9iXQrJ1myFWEXf+GqmUZz0EZ1TWG8Rj7PUR1btC46+R61u714ChlAjTKtlzP2mwuivnPoPg8L9u51oZjKi4SRyPbudYGCvobJKwe6a6QP+A4p5cyGNOmlTNBhlyiOmIQFeuQbl4bb1VNUruMN4t9O2gcKyy5uLfghPvkW42aUT/Q4THcLNAUAMWnW2DIJYC2AaApIOEacsgFFWu94Wbx9zkoam6DIRdBfIfwBniWauvcZt4h6bcYbRaYboa4qgTAkIsikYReyQTv/VoLKN6kkIsybLRZ4MkfiDrcAsCQiySZIPwTMFSrcbOCtCmx86HRZoFO0W4PR5DFkIvtc0biO+Ctln5uy20jQG1We7OTwFYqjlzEiyPtCy7mahHehjjPCPKZWjTaLBCcrIReH23TyOLLRZzSaE+T2KuNdkOU9qJRQ5XRZoHfzlXo0+L0I4svF3EhQntxg7Na+pqc9sdSlI8JN6u2fn4MhSUqQlBhyEVaPtRekuSolrCJT3C7YOSZ4WaBl6GKQQ+0PFitiExAhSEXddFf+0YCf7WoXYCY9yPQdjVixtAnVq2OZC9y8ycdA4NnocKVi36rTu2uGydUrUf4fahLKGCs3JyRr0y33T8XavTgqAeN66k5W6ILGoi5/rsPPBDc6tXwCAVVNZg18DNvW35aY1ccttTyzHLK5rgyZ73VsnsGGui5ZGBqtZhthn6jj6HD4pSp476w4t91RV27/pULKISeSwrmVgufxfSluMAGadh0xnPJweRq4eyCPktXoNPDzqI3K5ZLEmZXixsW6PHmCnQb9hW9Wf25pGnW/Grhq0JhoykIsPQXvVm9uWR5NWapFuU/UEjDYwiptxa9WX25JLmC4qoWX071Qcv7U48gyOMoerN6cskx62GsFp6w4kc+9b6RJQjr6il6s3pyyYRpd7zFNrSGXDzL/TdB4XUWvdmCueRSYDJO/5DJ7+GDX5dw3JvymhEXiC5WFL9ZzVyy2Ys105qNXUYB86NPxyOZd9f9aez5r8dnQuOpqtugm4hBiq9wyp1LQulZ0rdzlV+GDpWuYOtIW/tBmYar0Cs0sA05ZHMpPbYPrUFXJUpKSkpKSkpKSv61d28/TQRRHMd/p7ZbtrZrvUDRtoBFRQpqCwppVLxUJZVoAC0qFq33WEXUkHghalREfdNojJd4SfxHTYwPbmd3aKeruOv5vJMAXxra2ZkzjDHGGGOMsf+PpoF5zHw2M+rP5YnyOf9oJjsP5gmtI6EO+imfp586QiOtYG4X7xwnMvSu11MxDdBiU6+7dINovDMO5mbBCaLm50ENJlow3Ux0JQjmVomPROGzs7AwezZMNBQAc6VshAZ7S7BR6h2kyEMw99HKRMkjkDiSJCrz5yHXWamTcQaLWG2QzhuBXGZVG70oYFGF/RRaBeYiK9vIuI7FbQwThfh16yKaTgb5A4uXXU7+Q6RrWFK+72C1KtOL636hrVXZplWJNkpiSdGN/2D55K3S7nBUy5JRQEBoa1kWKBj0EHLHUlsHBq2/N9/gwNbUHBpBuFCBx+1458gJu0SEzgCmtpKywGqKJGAvdql9Ys3BA7dg7daBg8cn2y/FGkmLdAaellrhzAm7j5QETG2lZYEyDcFOqS/XH8BiAv2RvkbS4uIWeBlBgThxMEiDRyC0lZTFkW4Kwtq6tUXUZsR3v5Gfu38S3pW6BgVf1qPKBPUCQltJWaCXrsDSwgBqN7zQQFp8bb8Jj5oZduamtziFSxDaSsuiFKY4LASnUY/RYANpETBa4E09Y84ceO6ks4DQVloWqFAnRAvTqM/oQgNpAX8PPGlzEQKFaa6t482zENvKy2K2uaPViWs9hwuNpMXYcXjR5BzqF9iDKiP0HBDbyssCaSqiSmkt6udrKC3K/9IwH6fM5KEguBZVQhSEVVt5WcQphCp9RdXLbNTT4vgYPCd+AQoqaZjNjxsarNrKy0IzOjbAJJaDisg8THx1Lqf1+OE1aw5DgfDKypIOWLaVlgV0ysLkUj9U9F9q8MN6i+G1bT1JpbT3zsAsQ12waSstixRlYNIegIpEd4NpcbP9KzxlqBcK9rXAbJRew66trCye0TR+d2wCag5tUkhrNtkPL1G7Mnf5G5j5aQq2bSVlUaAm/C61BmoOdzWcFlsuwkMm5xy5WSRHMdi2bbEvi5eU+yO3MxNUZNLwjvBtKMi9hFmeNNi2jdqXhUbRP3KnOkFJ5QI8IxKDAuNkdaA87LREKfoBJpI/isFbUPN+vxNpEb8Br/ApfpUkrbC6GCV/QJ7W+QmtPija9U/Mb3RCTvFVKwkkrC5+kDy/1SgKftX+Eaed+V+bo5jk+axpXUr+NmpgHdRs4v+1VSaOOfIO2U9T9mVhaiv/8DP2GGqyy/gdMhz4VS5/I1myEMoKbSVLFl1FqLl4kT/Xmj1ZcGQ1KkNdkrKmtvKFxvvDUNM0xatRZne3O7KGnCVdUlZoK3k88Ok7VHy/wWvIVR6NOPLkZ77D0KzLim3lD/WKu6Fid5Gf/Ii7VRRU0pJH8UJZoa30UbxxE/VbeQL8vLbaiZWoX9An2UAjlBXaSjfQnE2jfk++8S4LwdMetb1Rkm1vQlmhrXTb2/ljqNfOId4bJTqcVNvRKNmsKpQV2so3q4b3oj63T4N3NIoO3FPdhyxuMRfLytvO2GwxD62r96EP70O2sueo4ukB8WCIUFbSVnYwpDR8HLU7PDzDpwcsfViueuZHPM4llJW0lR7n+rJiE2ozdzkJPvNj49w2xZN64iFMoaykrfwQ5tVD+lwtYfXJB+CTenZm9CAU+KyOTgtlJW1XUyQAe6/ORZ9W3rUEYC0x9eDzWPTcA/D5Wpnnzg08MJWVtr0fpYeQmu3pO9XUbjPwoLtJ7+vRAD4V/1eUaX/YVFbS9s7Sjyn5D2ZZOEbTifxCWcu24+ElHy70X0ygcczKATqUQA3uhJd+JBjPjarLqhC1FbCo+208yM91ePymd2lJorJ8aG6ZKMlDc93oYYS6ZaOuu3nUtWslhojCFesB9RUeUO9uwStEzem4BhMtztdKeMCvy2BSzwovNUB7WXiW0g2ijk4O636tRfEKpyJf4eQRG7KZ6aZclCiaa5rOZDeAeQxfl8gYY4wxxhhjjDHGGGOMMcYYY4wxxhhjjDHGGGOMMdaYHycqL/5uRrISAAAAAElFTkSuQmCC;" vertex="1" parent="WIyWlLk6GJQsqaUBKTNV-1">
                    <mxGeometry width="474" height="480" as="geometry"/>
                </mxCell>
                <mxCell id="9" value="C" style="shape=offPageConnector;whiteSpace=wrap;html=1;" vertex="1" parent="WIyWlLk6GJQsqaUBKTNV-1">
                    <mxGeometry x="1237.62" y="750" width="80" height="80" as="geometry"/>
                </mxCell>
            </root>
        </mxGraphModel>
    </diagram>
    <diagram id="7T5lmza-dPdjiQxlAVoI" name="Page-2">
        <mxGraphModel dx="526" dy="316" grid="1" gridSize="10" guides="1" tooltips="1" connect="1" arrows="1" fold="1" page="1" pageScale="1" pageWidth="850" pageHeight="1400" math="0" shadow="0">
            <root>
                <mxCell id="0"/>
                <mxCell id="1" parent="0"/>
                <mxCell id="JMppCEx71jJULGFF-tSz-5" style="edgeStyle=none;html=1;entryX=0.5;entryY=0;entryDx=0;entryDy=0;" edge="1" parent="1" target="E3fjXId8Lg7H9UF7gflO-2">
                    <mxGeometry relative="1" as="geometry">
                        <mxPoint x="430" y="240" as="sourcePoint"/>
                        <Array as="points">
                            <mxPoint x="130" y="240"/>
                        </Array>
                    </mxGeometry>
                </mxCell>
                <mxCell id="JMppCEx71jJULGFF-tSz-6" style="edgeStyle=none;html=1;entryX=0.5;entryY=0;entryDx=0;entryDy=0;" edge="1" parent="1" target="E3fjXId8Lg7H9UF7gflO-3">
                    <mxGeometry relative="1" as="geometry">
                        <mxPoint x="410" y="240" as="sourcePoint"/>
                        <Array as="points">
                            <mxPoint x="320" y="240"/>
                        </Array>
                    </mxGeometry>
                </mxCell>
                <mxCell id="JMppCEx71jJULGFF-tSz-7" style="edgeStyle=none;html=1;entryX=0.5;entryY=0;entryDx=0;entryDy=0;" edge="1" parent="1" target="E3fjXId8Lg7H9UF7gflO-4">
                    <mxGeometry relative="1" as="geometry">
                        <mxPoint x="410" y="240" as="sourcePoint"/>
                        <Array as="points">
                            <mxPoint x="540" y="240"/>
                        </Array>
                    </mxGeometry>
                </mxCell>
                <mxCell id="JMppCEx71jJULGFF-tSz-8" style="edgeStyle=none;html=1;entryX=0.5;entryY=0;entryDx=0;entryDy=0;" edge="1" parent="1" target="E3fjXId8Lg7H9UF7gflO-5">
                    <mxGeometry relative="1" as="geometry">
                        <mxPoint x="420" y="240" as="sourcePoint"/>
                        <Array as="points">
                            <mxPoint x="740" y="240"/>
                        </Array>
                    </mxGeometry>
                </mxCell>
                <mxCell id="JMppCEx71jJULGFF-tSz-66" style="edgeStyle=none;html=1;exitX=0.5;exitY=1;exitDx=0;exitDy=0;startArrow=none;" edge="1" parent="1" source="gY7BEkLyJmbJ5l88SQP9-10">
                    <mxGeometry relative="1" as="geometry">
                        <mxPoint x="420" y="240" as="targetPoint"/>
                        <mxPoint x="420" y="130" as="sourcePoint"/>
                    </mxGeometry>
                </mxCell>
                <mxCell id="gY7BEkLyJmbJ5l88SQP9-4" style="edgeStyle=none;html=1;exitX=1;exitY=0.5;exitDx=0;exitDy=0;entryX=0;entryY=0.5;entryDx=0;entryDy=0;" edge="1" parent="1" source="E3fjXId8Lg7H9UF7gflO-1" target="gY7BEkLyJmbJ5l88SQP9-2">
                    <mxGeometry relative="1" as="geometry"/>
                </mxCell>
                <mxCell id="E3fjXId8Lg7H9UF7gflO-1" value="C" style="shape=offPageConnector;whiteSpace=wrap;html=1;" vertex="1" parent="1">
                    <mxGeometry x="30" y="55" width="60" height="60" as="geometry"/>
                </mxCell>
                <mxCell id="JMppCEx71jJULGFF-tSz-13" style="edgeStyle=none;html=1;" edge="1" parent="1" source="E3fjXId8Lg7H9UF7gflO-2" target="JMppCEx71jJULGFF-tSz-12">
                    <mxGeometry relative="1" as="geometry"/>
                </mxCell>
                <mxCell id="E3fjXId8Lg7H9UF7gflO-2" value="Add Course" style="rounded=0;whiteSpace=wrap;html=1;" vertex="1" parent="1">
                    <mxGeometry x="70" y="270" width="120" height="30" as="geometry"/>
                </mxCell>
                <mxCell id="gY7BEkLyJmbJ5l88SQP9-13" style="edgeStyle=none;html=1;entryX=0.5;entryY=0;entryDx=0;entryDy=0;" edge="1" parent="1" source="E3fjXId8Lg7H9UF7gflO-3" target="gY7BEkLyJmbJ5l88SQP9-12">
                    <mxGeometry relative="1" as="geometry"/>
                </mxCell>
                <mxCell id="E3fjXId8Lg7H9UF7gflO-3" value="View Course" style="rounded=0;whiteSpace=wrap;html=1;" vertex="1" parent="1">
                    <mxGeometry x="260" y="270" width="120" height="30" as="geometry"/>
                </mxCell>
                <mxCell id="E3fjXId8Lg7H9UF7gflO-4" value="Edit Course" style="rounded=0;whiteSpace=wrap;html=1;" vertex="1" parent="1">
                    <mxGeometry x="480" y="270" width="120" height="30" as="geometry"/>
                </mxCell>
                <mxCell id="JMppCEx71jJULGFF-tSz-71" style="edgeStyle=none;html=1;" edge="1" parent="1" source="E3fjXId8Lg7H9UF7gflO-5" target="JMppCEx71jJULGFF-tSz-69">
                    <mxGeometry relative="1" as="geometry"/>
                </mxCell>
                <mxCell id="E3fjXId8Lg7H9UF7gflO-5" value="Delete Course" style="rounded=0;whiteSpace=wrap;html=1;" vertex="1" parent="1">
                    <mxGeometry x="680" y="270" width="120" height="30" as="geometry"/>
                </mxCell>
                <mxCell id="JMppCEx71jJULGFF-tSz-15" style="edgeStyle=none;html=1;exitX=1;exitY=0.5;exitDx=0;exitDy=0;" edge="1" parent="1" source="JMppCEx71jJULGFF-tSz-10">
                    <mxGeometry relative="1" as="geometry">
                        <mxPoint x="130" y="320" as="targetPoint"/>
                        <Array as="points">
                            <mxPoint x="200" y="440"/>
                            <mxPoint x="200" y="320"/>
                        </Array>
                    </mxGeometry>
                </mxCell>
                <mxCell id="JMppCEx71jJULGFF-tSz-10" value="Is Valid?" style="rhombus;whiteSpace=wrap;html=1;" vertex="1" parent="1">
                    <mxGeometry x="90" y="400" width="80" height="80" as="geometry"/>
                </mxCell>
                <mxCell id="JMppCEx71jJULGFF-tSz-17" style="edgeStyle=none;html=1;exitX=0.5;exitY=1;exitDx=0;exitDy=0;entryX=0.5;entryY=0;entryDx=0;entryDy=0;" edge="1" parent="1" source="JMppCEx71jJULGFF-tSz-12" target="JMppCEx71jJULGFF-tSz-10">
                    <mxGeometry relative="1" as="geometry"/>
                </mxCell>
                <mxCell id="JMppCEx71jJULGFF-tSz-12" value="Input Course Code" style="rounded=0;whiteSpace=wrap;html=1;" vertex="1" parent="1">
                    <mxGeometry x="85" y="340" width="90" height="30" as="geometry"/>
                </mxCell>
                <mxCell id="JMppCEx71jJULGFF-tSz-18" style="edgeStyle=none;html=1;entryX=0.5;entryY=0;entryDx=0;entryDy=0;" edge="1" parent="1" target="JMppCEx71jJULGFF-tSz-36">
                    <mxGeometry relative="1" as="geometry">
                        <mxPoint x="130" y="480" as="sourcePoint"/>
                        <mxPoint x="130" y="540" as="targetPoint"/>
                    </mxGeometry>
                </mxCell>
                <mxCell id="JMppCEx71jJULGFF-tSz-27" value="True" style="rounded=0;whiteSpace=wrap;html=1;" vertex="1" parent="1">
                    <mxGeometry x="110" y="490" width="40" height="20" as="geometry"/>
                </mxCell>
                <mxCell id="JMppCEx71jJULGFF-tSz-28" value="False" style="rounded=0;whiteSpace=wrap;html=1;" vertex="1" parent="1">
                    <mxGeometry x="190" y="380" width="40" height="20" as="geometry"/>
                </mxCell>
                <mxCell id="JMppCEx71jJULGFF-tSz-34" style="edgeStyle=none;html=1;exitX=1;exitY=0.5;exitDx=0;exitDy=0;" edge="1" parent="1" source="JMppCEx71jJULGFF-tSz-35">
                    <mxGeometry relative="1" as="geometry">
                        <mxPoint x="130" y="540" as="targetPoint"/>
                        <Array as="points">
                            <mxPoint x="200" y="660"/>
                            <mxPoint x="200" y="540"/>
                        </Array>
                    </mxGeometry>
                </mxCell>
                <mxCell id="JMppCEx71jJULGFF-tSz-46" style="edgeStyle=none;html=1;" edge="1" parent="1" source="JMppCEx71jJULGFF-tSz-35" target="JMppCEx71jJULGFF-tSz-44">
                    <mxGeometry relative="1" as="geometry"/>
                </mxCell>
                <mxCell id="JMppCEx71jJULGFF-tSz-35" value="Is Valid?" style="rhombus;whiteSpace=wrap;html=1;" vertex="1" parent="1">
                    <mxGeometry x="90" y="620" width="80" height="80" as="geometry"/>
                </mxCell>
                <mxCell id="JMppCEx71jJULGFF-tSz-39" style="edgeStyle=none;html=1;entryX=0.5;entryY=0;entryDx=0;entryDy=0;" edge="1" parent="1" source="JMppCEx71jJULGFF-tSz-36" target="JMppCEx71jJULGFF-tSz-35">
                    <mxGeometry relative="1" as="geometry"/>
                </mxCell>
                <mxCell id="JMppCEx71jJULGFF-tSz-36" value="Input Course Title" style="rounded=0;whiteSpace=wrap;html=1;" vertex="1" parent="1">
                    <mxGeometry x="85" y="560" width="90" height="30" as="geometry"/>
                </mxCell>
                <mxCell id="JMppCEx71jJULGFF-tSz-37" value="True" style="rounded=0;whiteSpace=wrap;html=1;" vertex="1" parent="1">
                    <mxGeometry x="110" y="710" width="40" height="20" as="geometry"/>
                </mxCell>
                <mxCell id="JMppCEx71jJULGFF-tSz-38" value="False" style="rounded=0;whiteSpace=wrap;html=1;" vertex="1" parent="1">
                    <mxGeometry x="190" y="600" width="40" height="20" as="geometry"/>
                </mxCell>
                <mxCell id="JMppCEx71jJULGFF-tSz-42" style="edgeStyle=none;html=1;exitX=1;exitY=0.5;exitDx=0;exitDy=0;" edge="1" parent="1" source="JMppCEx71jJULGFF-tSz-43">
                    <mxGeometry relative="1" as="geometry">
                        <mxPoint x="130" y="740" as="targetPoint"/>
                        <Array as="points">
                            <mxPoint x="205" y="860"/>
                            <mxPoint x="205" y="740"/>
                        </Array>
                    </mxGeometry>
                </mxCell>
                <mxCell id="JMppCEx71jJULGFF-tSz-52" style="edgeStyle=none;html=1;entryX=0.5;entryY=0;entryDx=0;entryDy=0;" edge="1" parent="1" source="JMppCEx71jJULGFF-tSz-43" target="JMppCEx71jJULGFF-tSz-50">
                    <mxGeometry relative="1" as="geometry"/>
                </mxCell>
                <mxCell id="JMppCEx71jJULGFF-tSz-43" value="Is Valid?" style="rhombus;whiteSpace=wrap;html=1;" vertex="1" parent="1">
                    <mxGeometry x="90" y="820" width="80" height="80" as="geometry"/>
                </mxCell>
                <mxCell id="JMppCEx71jJULGFF-tSz-47" style="edgeStyle=none;html=1;entryX=0.5;entryY=0;entryDx=0;entryDy=0;" edge="1" parent="1" source="JMppCEx71jJULGFF-tSz-44" target="JMppCEx71jJULGFF-tSz-43">
                    <mxGeometry relative="1" as="geometry"/>
                </mxCell>
                <mxCell id="JMppCEx71jJULGFF-tSz-44" value="Input Course Unit" style="rounded=0;whiteSpace=wrap;html=1;" vertex="1" parent="1">
                    <mxGeometry x="85" y="760" width="90" height="30" as="geometry"/>
                </mxCell>
                <mxCell id="JMppCEx71jJULGFF-tSz-45" value="False" style="rounded=0;whiteSpace=wrap;html=1;" vertex="1" parent="1">
                    <mxGeometry x="195" y="800" width="40" height="20" as="geometry"/>
                </mxCell>
                <mxCell id="JMppCEx71jJULGFF-tSz-48" style="edgeStyle=none;html=1;exitX=1;exitY=0.5;exitDx=0;exitDy=0;" edge="1" parent="1" source="JMppCEx71jJULGFF-tSz-49">
                    <mxGeometry relative="1" as="geometry">
                        <mxPoint x="130" y="940" as="targetPoint"/>
                        <Array as="points">
                            <mxPoint x="205" y="1060"/>
                            <mxPoint x="205" y="940"/>
                        </Array>
                    </mxGeometry>
                </mxCell>
                <mxCell id="JMppCEx71jJULGFF-tSz-58" style="edgeStyle=none;html=1;exitX=0.5;exitY=1;exitDx=0;exitDy=0;" edge="1" parent="1" source="JMppCEx71jJULGFF-tSz-49">
                    <mxGeometry relative="1" as="geometry">
                        <mxPoint x="130" y="1170" as="targetPoint"/>
                    </mxGeometry>
                </mxCell>
                <mxCell id="JMppCEx71jJULGFF-tSz-49" value="Is Valid?" style="rhombus;whiteSpace=wrap;html=1;" vertex="1" parent="1">
                    <mxGeometry x="90" y="1020" width="80" height="80" as="geometry"/>
                </mxCell>
                <mxCell id="JMppCEx71jJULGFF-tSz-54" style="edgeStyle=none;html=1;entryX=0.5;entryY=0;entryDx=0;entryDy=0;" edge="1" parent="1" source="JMppCEx71jJULGFF-tSz-50" target="JMppCEx71jJULGFF-tSz-49">
                    <mxGeometry relative="1" as="geometry"/>
                </mxCell>
                <mxCell id="JMppCEx71jJULGFF-tSz-50" value="Input Course Year Level" style="rounded=0;whiteSpace=wrap;html=1;" vertex="1" parent="1">
                    <mxGeometry x="85" y="960" width="90" height="30" as="geometry"/>
                </mxCell>
                <mxCell id="JMppCEx71jJULGFF-tSz-51" value="False" style="rounded=0;whiteSpace=wrap;html=1;" vertex="1" parent="1">
                    <mxGeometry x="195" y="1000" width="40" height="20" as="geometry"/>
                </mxCell>
                <mxCell id="JMppCEx71jJULGFF-tSz-53" value="True" style="rounded=0;whiteSpace=wrap;html=1;" vertex="1" parent="1">
                    <mxGeometry x="110" y="910" width="40" height="20" as="geometry"/>
                </mxCell>
                <mxCell id="JMppCEx71jJULGFF-tSz-62" value="True" style="rounded=0;whiteSpace=wrap;html=1;" vertex="1" parent="1">
                    <mxGeometry x="110" y="1110" width="40" height="20" as="geometry"/>
                </mxCell>
                <mxCell id="JMppCEx71jJULGFF-tSz-75" style="edgeStyle=none;html=1;entryX=0.5;entryY=0;entryDx=0;entryDy=0;" edge="1" parent="1" source="JMppCEx71jJULGFF-tSz-68" target="gY7BEkLyJmbJ5l88SQP9-16">
                    <mxGeometry relative="1" as="geometry"/>
                </mxCell>
                <mxCell id="gY7BEkLyJmbJ5l88SQP9-21" style="edgeStyle=none;html=1;entryX=1;entryY=0.5;entryDx=0;entryDy=0;exitX=1;exitY=0.5;exitDx=0;exitDy=0;" edge="1" parent="1" source="JMppCEx71jJULGFF-tSz-68" target="gY7BEkLyJmbJ5l88SQP9-18">
                    <mxGeometry relative="1" as="geometry">
                        <Array as="points">
                            <mxPoint x="820" y="450"/>
                            <mxPoint x="820" y="675"/>
                        </Array>
                    </mxGeometry>
                </mxCell>
                <mxCell id="JMppCEx71jJULGFF-tSz-68" value="Is Existing?" style="rhombus;whiteSpace=wrap;html=1;" vertex="1" parent="1">
                    <mxGeometry x="700" y="410" width="80" height="80" as="geometry"/>
                </mxCell>
                <mxCell id="JMppCEx71jJULGFF-tSz-72" style="edgeStyle=none;html=1;entryX=0.5;entryY=0;entryDx=0;entryDy=0;" edge="1" parent="1" source="JMppCEx71jJULGFF-tSz-69" target="JMppCEx71jJULGFF-tSz-68">
                    <mxGeometry relative="1" as="geometry"/>
                </mxCell>
                <mxCell id="JMppCEx71jJULGFF-tSz-69" value="Input Course Code" style="rounded=0;whiteSpace=wrap;html=1;" vertex="1" parent="1">
                    <mxGeometry x="695" y="350" width="90" height="30" as="geometry"/>
                </mxCell>
                <mxCell id="JMppCEx71jJULGFF-tSz-73" value="True" style="rounded=0;whiteSpace=wrap;html=1;" vertex="1" parent="1">
                    <mxGeometry x="720" y="520" width="40" height="20" as="geometry"/>
                </mxCell>
                <mxCell id="JMppCEx71jJULGFF-tSz-76" style="edgeStyle=none;html=1;" edge="1" parent="1" target="JMppCEx71jJULGFF-tSz-79">
                    <mxGeometry relative="1" as="geometry">
                        <mxPoint x="535" y="300" as="sourcePoint"/>
                    </mxGeometry>
                </mxCell>
                <mxCell id="JMppCEx71jJULGFF-tSz-77" style="edgeStyle=none;html=1;exitX=1;exitY=0.5;exitDx=0;exitDy=0;" edge="1" parent="1" source="JMppCEx71jJULGFF-tSz-78">
                    <mxGeometry relative="1" as="geometry">
                        <mxPoint x="535" y="330" as="targetPoint"/>
                        <Array as="points">
                            <mxPoint x="610" y="450"/>
                            <mxPoint x="610" y="330"/>
                        </Array>
                    </mxGeometry>
                </mxCell>
                <mxCell id="JMppCEx71jJULGFF-tSz-78" value="Is Existing?" style="rhombus;whiteSpace=wrap;html=1;" vertex="1" parent="1">
                    <mxGeometry x="495" y="410" width="80" height="80" as="geometry"/>
                </mxCell>
                <mxCell id="JMppCEx71jJULGFF-tSz-81" style="edgeStyle=none;html=1;" edge="1" parent="1" source="JMppCEx71jJULGFF-tSz-79" target="JMppCEx71jJULGFF-tSz-78">
                    <mxGeometry relative="1" as="geometry"/>
                </mxCell>
                <mxCell id="JMppCEx71jJULGFF-tSz-79" value="Input Course Code to Edit" style="rounded=0;whiteSpace=wrap;html=1;" vertex="1" parent="1">
                    <mxGeometry x="490" y="350" width="90" height="30" as="geometry"/>
                </mxCell>
                <mxCell id="JMppCEx71jJULGFF-tSz-82" value="False" style="rounded=0;whiteSpace=wrap;html=1;" vertex="1" parent="1">
                    <mxGeometry x="590" y="390" width="40" height="20" as="geometry"/>
                </mxCell>
                <mxCell id="JMppCEx71jJULGFF-tSz-92" style="edgeStyle=none;html=1;entryX=0.5;entryY=0;entryDx=0;entryDy=0;startArrow=none;" edge="1" parent="1" target="JMppCEx71jJULGFF-tSz-99" source="JMppCEx71jJULGFF-tSz-80">
                    <mxGeometry relative="1" as="geometry">
                        <mxPoint x="535" y="489.9999999999998" as="sourcePoint"/>
                        <mxPoint x="535" y="550" as="targetPoint"/>
                        <Array as="points"/>
                    </mxGeometry>
                </mxCell>
                <mxCell id="JMppCEx71jJULGFF-tSz-95" style="edgeStyle=none;html=1;exitX=1;exitY=0.5;exitDx=0;exitDy=0;" edge="1" parent="1" source="JMppCEx71jJULGFF-tSz-97">
                    <mxGeometry relative="1" as="geometry">
                        <mxPoint x="535" y="549.9999999999998" as="targetPoint"/>
                        <Array as="points">
                            <mxPoint x="605" y="670"/>
                            <mxPoint x="605" y="550"/>
                        </Array>
                    </mxGeometry>
                </mxCell>
                <mxCell id="JMppCEx71jJULGFF-tSz-96" style="edgeStyle=none;html=1;" edge="1" parent="1" source="JMppCEx71jJULGFF-tSz-97" target="JMppCEx71jJULGFF-tSz-106">
                    <mxGeometry relative="1" as="geometry"/>
                </mxCell>
                <mxCell id="JMppCEx71jJULGFF-tSz-97" value="Is Valid?" style="rhombus;whiteSpace=wrap;html=1;" vertex="1" parent="1">
                    <mxGeometry x="495" y="630" width="80" height="80" as="geometry"/>
                </mxCell>
                <mxCell id="JMppCEx71jJULGFF-tSz-98" style="edgeStyle=none;html=1;entryX=0.5;entryY=0;entryDx=0;entryDy=0;" edge="1" parent="1" source="JMppCEx71jJULGFF-tSz-99" target="JMppCEx71jJULGFF-tSz-97">
                    <mxGeometry relative="1" as="geometry"/>
                </mxCell>
                <mxCell id="JMppCEx71jJULGFF-tSz-99" value="Input Course Title" style="rounded=0;whiteSpace=wrap;html=1;" vertex="1" parent="1">
                    <mxGeometry x="490" y="570" width="90" height="30" as="geometry"/>
                </mxCell>
                <mxCell id="JMppCEx71jJULGFF-tSz-100" value="True" style="rounded=0;whiteSpace=wrap;html=1;" vertex="1" parent="1">
                    <mxGeometry x="515" y="720" width="40" height="20" as="geometry"/>
                </mxCell>
                <mxCell id="JMppCEx71jJULGFF-tSz-101" value="False" style="rounded=0;whiteSpace=wrap;html=1;" vertex="1" parent="1">
                    <mxGeometry x="595" y="610" width="40" height="20" as="geometry"/>
                </mxCell>
                <mxCell id="JMppCEx71jJULGFF-tSz-102" style="edgeStyle=none;html=1;exitX=1;exitY=0.5;exitDx=0;exitDy=0;" edge="1" parent="1" source="JMppCEx71jJULGFF-tSz-104">
                    <mxGeometry relative="1" as="geometry">
                        <mxPoint x="535" y="749.9999999999998" as="targetPoint"/>
                        <Array as="points">
                            <mxPoint x="610" y="870"/>
                            <mxPoint x="610" y="750"/>
                        </Array>
                    </mxGeometry>
                </mxCell>
                <mxCell id="JMppCEx71jJULGFF-tSz-103" style="edgeStyle=none;html=1;entryX=0.5;entryY=0;entryDx=0;entryDy=0;" edge="1" parent="1" source="JMppCEx71jJULGFF-tSz-104" target="JMppCEx71jJULGFF-tSz-112">
                    <mxGeometry relative="1" as="geometry"/>
                </mxCell>
                <mxCell id="JMppCEx71jJULGFF-tSz-104" value="Is Valid?" style="rhombus;whiteSpace=wrap;html=1;" vertex="1" parent="1">
                    <mxGeometry x="495" y="830" width="80" height="80" as="geometry"/>
                </mxCell>
                <mxCell id="JMppCEx71jJULGFF-tSz-105" style="edgeStyle=none;html=1;entryX=0.5;entryY=0;entryDx=0;entryDy=0;" edge="1" parent="1" source="JMppCEx71jJULGFF-tSz-106" target="JMppCEx71jJULGFF-tSz-104">
                    <mxGeometry relative="1" as="geometry"/>
                </mxCell>
                <mxCell id="JMppCEx71jJULGFF-tSz-106" value="Input Course Units" style="rounded=0;whiteSpace=wrap;html=1;" vertex="1" parent="1">
                    <mxGeometry x="490" y="770" width="90" height="30" as="geometry"/>
                </mxCell>
                <mxCell id="JMppCEx71jJULGFF-tSz-107" value="False" style="rounded=0;whiteSpace=wrap;html=1;" vertex="1" parent="1">
                    <mxGeometry x="600" y="810" width="40" height="20" as="geometry"/>
                </mxCell>
                <mxCell id="JMppCEx71jJULGFF-tSz-108" style="edgeStyle=none;html=1;exitX=1;exitY=0.5;exitDx=0;exitDy=0;" edge="1" parent="1" source="JMppCEx71jJULGFF-tSz-110">
                    <mxGeometry relative="1" as="geometry">
                        <mxPoint x="535" y="950" as="targetPoint"/>
                        <Array as="points">
                            <mxPoint x="610" y="1070"/>
                            <mxPoint x="610" y="950"/>
                        </Array>
                    </mxGeometry>
                </mxCell>
                <mxCell id="JMppCEx71jJULGFF-tSz-109" style="edgeStyle=none;html=1;exitX=0.5;exitY=1;exitDx=0;exitDy=0;" edge="1" parent="1" source="JMppCEx71jJULGFF-tSz-110" target="JMppCEx71jJULGFF-tSz-119">
                    <mxGeometry relative="1" as="geometry"/>
                </mxCell>
                <mxCell id="JMppCEx71jJULGFF-tSz-110" value="Is Valid?" style="rhombus;whiteSpace=wrap;html=1;" vertex="1" parent="1">
                    <mxGeometry x="495" y="1030" width="80" height="80" as="geometry"/>
                </mxCell>
                <mxCell id="JMppCEx71jJULGFF-tSz-111" style="edgeStyle=none;html=1;entryX=0.5;entryY=0;entryDx=0;entryDy=0;" edge="1" parent="1" source="JMppCEx71jJULGFF-tSz-112" target="JMppCEx71jJULGFF-tSz-110">
                    <mxGeometry relative="1" as="geometry"/>
                </mxCell>
                <mxCell id="JMppCEx71jJULGFF-tSz-112" value="Input Course Year Level" style="rounded=0;whiteSpace=wrap;html=1;" vertex="1" parent="1">
                    <mxGeometry x="490" y="970" width="90" height="30" as="geometry"/>
                </mxCell>
                <mxCell id="JMppCEx71jJULGFF-tSz-113" value="False" style="rounded=0;whiteSpace=wrap;html=1;" vertex="1" parent="1">
                    <mxGeometry x="600" y="1010" width="40" height="20" as="geometry"/>
                </mxCell>
                <mxCell id="JMppCEx71jJULGFF-tSz-114" value="True" style="rounded=0;whiteSpace=wrap;html=1;" vertex="1" parent="1">
                    <mxGeometry x="515" y="920" width="40" height="20" as="geometry"/>
                </mxCell>
                <mxCell id="JMppCEx71jJULGFF-tSz-115" style="edgeStyle=none;html=1;exitX=1;exitY=0.5;exitDx=0;exitDy=0;" edge="1" parent="1" source="JMppCEx71jJULGFF-tSz-117">
                    <mxGeometry relative="1" as="geometry">
                        <mxPoint x="535" y="1160" as="targetPoint"/>
                        <Array as="points">
                            <mxPoint x="610" y="1270"/>
                            <mxPoint x="610" y="1160"/>
                        </Array>
                    </mxGeometry>
                </mxCell>
                <mxCell id="JMppCEx71jJULGFF-tSz-116" style="edgeStyle=none;html=1;exitX=0.5;exitY=1;exitDx=0;exitDy=0;" edge="1" parent="1" source="JMppCEx71jJULGFF-tSz-117" target="gY7BEkLyJmbJ5l88SQP9-27">
                    <mxGeometry relative="1" as="geometry">
                        <mxPoint x="535" y="1370" as="targetPoint"/>
                        <Array as="points">
                            <mxPoint x="535" y="1365"/>
                        </Array>
                    </mxGeometry>
                </mxCell>
                <mxCell id="JMppCEx71jJULGFF-tSz-117" value="Is Valid" style="rhombus;whiteSpace=wrap;html=1;" vertex="1" parent="1">
                    <mxGeometry x="495" y="1230" width="80" height="80" as="geometry"/>
                </mxCell>
                <mxCell id="JMppCEx71jJULGFF-tSz-118" style="edgeStyle=none;html=1;entryX=0.5;entryY=0;entryDx=0;entryDy=0;" edge="1" parent="1" source="JMppCEx71jJULGFF-tSz-119" target="JMppCEx71jJULGFF-tSz-117">
                    <mxGeometry relative="1" as="geometry"/>
                </mxCell>
                <mxCell id="JMppCEx71jJULGFF-tSz-119" value="Input Course Unit" style="rounded=0;whiteSpace=wrap;html=1;" vertex="1" parent="1">
                    <mxGeometry x="490" y="1180" width="90" height="30" as="geometry"/>
                </mxCell>
                <mxCell id="JMppCEx71jJULGFF-tSz-120" value="False" style="rounded=0;whiteSpace=wrap;html=1;" vertex="1" parent="1">
                    <mxGeometry x="595" y="1200" width="40" height="20" as="geometry"/>
                </mxCell>
                <mxCell id="JMppCEx71jJULGFF-tSz-121" value="True" style="rounded=0;whiteSpace=wrap;html=1;" vertex="1" parent="1">
                    <mxGeometry x="515" y="1120" width="40" height="20" as="geometry"/>
                </mxCell>
                <mxCell id="JMppCEx71jJULGFF-tSz-122" value="True" style="rounded=0;whiteSpace=wrap;html=1;" vertex="1" parent="1">
                    <mxGeometry x="515" y="1330" width="40" height="20" as="geometry"/>
                </mxCell>
                <mxCell id="JMppCEx71jJULGFF-tSz-124" value="" style="edgeStyle=none;html=1;entryX=0.5;entryY=0;entryDx=0;entryDy=0;endArrow=none;" edge="1" parent="1" target="JMppCEx71jJULGFF-tSz-80">
                    <mxGeometry relative="1" as="geometry">
                        <mxPoint x="535" y="489.9999999999998" as="sourcePoint"/>
                        <mxPoint x="535" y="570" as="targetPoint"/>
                        <Array as="points"/>
                    </mxGeometry>
                </mxCell>
                <mxCell id="JMppCEx71jJULGFF-tSz-80" value="True" style="rounded=0;whiteSpace=wrap;html=1;" vertex="1" parent="1">
                    <mxGeometry x="515" y="510" width="40" height="20" as="geometry"/>
                </mxCell>
                <mxCell id="gY7BEkLyJmbJ5l88SQP9-1" style="edgeStyle=none;html=1;entryX=0;entryY=0.5;entryDx=0;entryDy=0;" edge="1" parent="1" source="gY7BEkLyJmbJ5l88SQP9-2" target="gY7BEkLyJmbJ5l88SQP9-3">
                    <mxGeometry relative="1" as="geometry">
                        <mxPoint x="380" y="85" as="targetPoint"/>
                    </mxGeometry>
                </mxCell>
                <mxCell id="gY7BEkLyJmbJ5l88SQP9-2" value="1.Add Course&lt;div&gt;2. View Course&lt;/div&gt;&lt;div&gt;3. Edit Course&lt;/div&gt;&lt;div&gt;4.Delete Course&lt;/div&gt;&lt;div&gt;5. Exit&lt;/div&gt;" style="shape=parallelogram;perimeter=parallelogramPerimeter;whiteSpace=wrap;html=1;fixedSize=1;" vertex="1" parent="1">
                    <mxGeometry x="150" y="40" width="155.25" height="90" as="geometry"/>
                </mxCell>
                <mxCell id="gY7BEkLyJmbJ5l88SQP9-6" style="edgeStyle=none;html=1;exitX=1;exitY=0.5;exitDx=0;exitDy=0;" edge="1" parent="1" source="gY7BEkLyJmbJ5l88SQP9-3">
                    <mxGeometry relative="1" as="geometry">
                        <mxPoint x="228" y="40" as="targetPoint"/>
                        <Array as="points">
                            <mxPoint x="510" y="85"/>
                            <mxPoint x="510" y="20"/>
                            <mxPoint x="228" y="20"/>
                        </Array>
                    </mxGeometry>
                </mxCell>
                <mxCell id="gY7BEkLyJmbJ5l88SQP9-3" value="Is Valid?" style="rhombus;whiteSpace=wrap;html=1;" vertex="1" parent="1">
                    <mxGeometry x="380.0000000000001" y="45" width="80" height="80" as="geometry"/>
                </mxCell>
                <mxCell id="gY7BEkLyJmbJ5l88SQP9-7" value="False" style="rounded=0;whiteSpace=wrap;html=1;" vertex="1" parent="1">
                    <mxGeometry x="500" y="55" width="40" height="20" as="geometry"/>
                </mxCell>
                <mxCell id="gY7BEkLyJmbJ5l88SQP9-11" value="" style="edgeStyle=none;html=1;exitX=0.5;exitY=1;exitDx=0;exitDy=0;endArrow=none;" edge="1" parent="1" source="gY7BEkLyJmbJ5l88SQP9-3" target="gY7BEkLyJmbJ5l88SQP9-10">
                    <mxGeometry relative="1" as="geometry">
                        <mxPoint x="420" y="240" as="targetPoint"/>
                        <mxPoint x="420" y="125" as="sourcePoint"/>
                    </mxGeometry>
                </mxCell>
                <mxCell id="gY7BEkLyJmbJ5l88SQP9-10" value="True" style="rounded=0;whiteSpace=wrap;html=1;" vertex="1" parent="1">
                    <mxGeometry x="400" y="160" width="40" height="20" as="geometry"/>
                </mxCell>
                <mxCell id="gY7BEkLyJmbJ5l88SQP9-15" style="edgeStyle=none;html=1;entryX=0.5;entryY=0;entryDx=0;entryDy=0;exitX=0.5;exitY=1;exitDx=0;exitDy=0;" edge="1" parent="1" source="gY7BEkLyJmbJ5l88SQP9-12" target="gY7BEkLyJmbJ5l88SQP9-14">
                    <mxGeometry relative="1" as="geometry"/>
                </mxCell>
                <mxCell id="gY7BEkLyJmbJ5l88SQP9-12" value="Course Record" style="shape=parallelogram;perimeter=parallelogramPerimeter;whiteSpace=wrap;html=1;fixedSize=1;" vertex="1" parent="1">
                    <mxGeometry x="260" y="340" width="120" height="60" as="geometry"/>
                </mxCell>
                <mxCell id="gY7BEkLyJmbJ5l88SQP9-14" value="R" style="ellipse;whiteSpace=wrap;html=1;aspect=fixed;" vertex="1" parent="1">
                    <mxGeometry x="300" y="430" width="40" height="40" as="geometry"/>
                </mxCell>
                <mxCell id="gY7BEkLyJmbJ5l88SQP9-16" value="Delete Course" style="rounded=0;whiteSpace=wrap;html=1;" vertex="1" parent="1">
                    <mxGeometry x="690" y="580" width="100" height="40" as="geometry"/>
                </mxCell>
                <mxCell id="gY7BEkLyJmbJ5l88SQP9-17" style="edgeStyle=none;html=1;entryX=0.5;entryY=0;entryDx=0;entryDy=0;exitX=0.5;exitY=1;exitDx=0;exitDy=0;" edge="1" parent="1" target="gY7BEkLyJmbJ5l88SQP9-18">
                    <mxGeometry relative="1" as="geometry">
                        <mxPoint x="740" y="620" as="sourcePoint"/>
                    </mxGeometry>
                </mxCell>
                <mxCell id="gY7BEkLyJmbJ5l88SQP9-18" value="R" style="ellipse;whiteSpace=wrap;html=1;aspect=fixed;" vertex="1" parent="1">
                    <mxGeometry x="715" y="650" width="50" height="50" as="geometry"/>
                </mxCell>
                <mxCell id="gY7BEkLyJmbJ5l88SQP9-19" style="edgeStyle=none;html=1;entryX=0.5;entryY=0;entryDx=0;entryDy=0;exitX=0.44;exitY=1.014;exitDx=0;exitDy=0;exitPerimeter=0;" edge="1" parent="1" target="gY7BEkLyJmbJ5l88SQP9-20" source="gY7BEkLyJmbJ5l88SQP9-2">
                    <mxGeometry relative="1" as="geometry">
                        <mxPoint x="227.5" y="125" as="sourcePoint"/>
                    </mxGeometry>
                </mxCell>
                <mxCell id="gY7BEkLyJmbJ5l88SQP9-20" value="R" style="ellipse;whiteSpace=wrap;html=1;aspect=fixed;" vertex="1" parent="1">
                    <mxGeometry x="190" y="155" width="55" height="55" as="geometry"/>
                </mxCell>
                <mxCell id="gY7BEkLyJmbJ5l88SQP9-27" value="R" style="ellipse;whiteSpace=wrap;html=1;aspect=fixed;" vertex="1" parent="1">
                    <mxGeometry x="600" y="1340" width="50" height="50" as="geometry"/>
                </mxCell>
            </root>
        </mxGraphModel>
    </diagram>
</mxfile>